<svg width="77" height="83" viewBox="0 0 77 83" fill="none" xmlns="http://www.w3.org/2000/svg">
<g clip-path="url(#clip0)">
<path d="M74.9604 60.794C75.0685 60.6068 75.129 60.3865 75.129 60.1662V49.6243C75.129 48.9622 74.6238 48.4261 74.0005 48.4261C73.3778 48.4261 72.8725 48.9622 72.8725 49.6243V58.3201L62.0262 53.1805V30.9136L72.8725 24.5295V44.4062C72.8725 45.0684 73.3778 45.6045 74.0005 45.6045C74.6238 45.6045 75.129 45.0684 75.129 44.4062V22.4956C75.129 22.0681 74.8999 21.6549 74.5474 21.4477L39.0886 0.577479C38.752 0.380261 38.332 0.380261 37.9954 0.577479L2.53662 21.4477C2.17826 21.658 1.95033 22.0755 1.95503 22.5099V60.1662C1.95503 60.5943 2.18355 61.0069 2.53662 61.2147L18.1596 70.4103C18.7048 70.7305 19.391 70.5214 19.6929 69.9428C19.9949 69.3637 19.7975 68.6341 19.2529 68.3139L5.60729 60.2823L16.1305 55.2963L37.4138 67.8227V79.0024L23.7265 70.947C23.1819 70.6262 22.4951 70.8353 22.1932 71.4145C21.8912 71.993 22.0886 72.7226 22.6332 73.0434L37.9954 82.0849C38.3302 82.2821 38.7538 82.2821 39.0886 82.0849L55.1999 72.6015C55.745 72.2808 55.9418 71.5518 55.6399 70.9726C55.3385 70.3941 54.6518 70.1844 54.1066 70.5052L39.6696 79.0024V67.8227L60.9529 55.2963L71.4761 60.2823L58.5772 67.8745C58.032 68.1953 57.8352 68.9243 58.1372 69.5035C58.3428 69.8985 58.7276 70.1213 59.1247 70.1213C59.3092 70.1213 59.4972 70.0727 59.6705 69.9709L74.5474 61.2147C74.7142 61.1167 74.8605 60.9663 74.9604 60.794ZM38.5417 18.4189L58.5707 30.2077L38.5417 41.9959L18.5133 30.2077L38.5417 18.4189ZM60.8983 28.8378L39.6696 16.3431V3.65933L71.6729 22.4956L60.8983 28.8378ZM37.4138 16.3431L16.1858 28.8378L5.41049 22.4956L37.4138 3.65933V16.3431ZM4.21089 24.5295L15.0572 30.9136V53.1805L4.21089 58.3201V24.5295ZM17.3137 32.2417L25.5012 37.0604L37.4138 44.0723V65.0829L17.3137 53.2523V32.2417ZM39.6696 44.0723L59.7703 32.2417V53.2523L39.6696 65.0829V44.0723Z" fill="white"/>
</g>
<defs>
<clipPath id="clip0">
<rect y="0.589722" width="77" height="81.8031" fill="white"/>
</clipPath>
</defs>
</svg>
