<svg width="75" height="74" viewBox="0 0 75 74" fill="none" xmlns="http://www.w3.org/2000/svg">
<path d="M2.19727 43.5508C2.19727 37.2829 6.93455 31.9104 13.2174 31.0528C13.611 30.9992 13.9446 30.7401 14.0894 30.3748C15.8226 26.0129 19.1608 22.4707 23.3906 20.4371C23.4558 20.7104 23.5645 20.9774 23.7173 21.2275C24.2186 22.0462 25.0963 22.5345 26.0656 22.5345H30.0602L26.572 30.0637C26.1818 30.9061 26.2516 31.8737 26.7586 32.6529C27.2661 33.4314 28.129 33.8966 29.0674 33.8966H33.5472L32.9052 36.4524C31.0244 36.7822 29.2522 37.458 27.6827 38.455C27.1729 38.7791 27.0258 39.4498 27.3542 39.9534C27.6827 40.4564 28.3625 40.6021 28.8729 40.2774C30.8178 39.0416 33.1427 38.3884 35.5957 38.3884C38.463 38.3884 41.1839 39.2962 43.257 40.9453C43.4601 41.1068 43.7038 41.1853 43.9459 41.1853C44.2663 41.1853 44.5845 41.047 44.8019 40.7816C45.1824 40.3158 45.108 39.6333 44.636 39.2573C43.6129 38.4437 42.4587 37.7843 41.2199 37.2886L43.7668 33.9898C44.1347 33.5138 44.0414 32.8335 43.5585 32.4705C43.0761 32.1075 42.3866 32.2001 42.0187 32.676L38.9906 36.5981C37.8931 36.3508 36.7544 36.2204 35.5957 36.2204C35.4721 36.2204 35.3491 36.2238 35.2255 36.2266L36.0174 33.0735C36.0987 32.75 36.0249 32.4073 35.8166 32.1447C35.6083 31.8822 35.289 31.7292 34.9514 31.7292H29.0674C28.8076 31.7292 28.6674 31.5739 28.6074 31.4814C28.5473 31.3888 28.4626 31.1985 28.5702 30.9659L32.7702 21.9016C32.9252 21.5663 32.8972 21.1756 32.6952 20.8651C32.4926 20.5546 32.1447 20.3671 31.7705 20.3671H26.0656C25.7875 20.3671 25.6462 20.1853 25.5981 20.1069C25.5507 20.0284 25.4528 19.8201 25.5821 19.5773L30.0196 11.2425C30.3022 10.7129 30.0951 10.0574 29.5584 9.77909C29.0216 9.50075 28.3567 9.70456 28.0746 10.2347L24.052 17.7898C21.9744 18.5831 20.0569 19.6891 18.3603 21.0525L16.0715 16.7533C15.7253 16.1035 15.0484 15.6998 14.304 15.6998H7.66869C6.96087 15.6998 6.32057 16.0577 5.95665 16.6567C5.59273 17.2558 5.57442 17.9812 5.90801 18.5972L6.70967 20.0775H6.70509C6.00815 20.0775 5.373 20.427 5.00679 21.013C4.64058 21.5985 4.60854 22.3149 4.92096 22.9297L6.6164 26.2664C5.86853 26.2811 5.20191 26.6977 4.86889 27.3611C4.53014 28.0363 4.60682 28.829 5.06973 29.4286L6.54202 31.3351C5.50919 32.0313 4.5599 32.8572 3.72162 33.7995C1.32179 36.4953 0 39.9585 0 43.5508C0 46.6272 0.949287 49.5771 2.74429 52.081C2.9583 52.3797 3.29762 52.5394 3.64208 52.5394C3.86124 52.5394 4.08268 52.4745 4.27551 52.3402C4.77104 51.9946 4.88834 51.3183 4.53815 50.8293C3.00694 48.6936 2.19727 46.1767 2.19727 43.5508ZM7.06387 28.4332H8.39596C8.77705 28.4332 9.13067 28.2384 9.33094 27.9183C9.53064 27.5988 9.54895 27.1996 9.37786 26.8631L7.03125 22.2449H8.54187C8.92811 22.2449 9.28574 22.045 9.48429 21.7182C9.68285 21.3918 9.69315 20.9865 9.51118 20.6505L8.00457 17.8672H14.1827L16.6798 22.5571C14.8333 24.3993 13.3335 26.5814 12.2841 29.0051C10.952 29.2451 9.6674 29.6651 8.46062 30.2421L7.06387 28.4332Z" fill="white"/>
<path d="M67.5996 39.0772C67.6139 38.8045 67.6214 38.5329 67.6214 38.2642C67.6214 34.4821 66.267 31.0071 64.0119 28.2847L68.7332 22.1698C69.1961 21.5703 69.2728 20.7782 68.934 20.1024C68.601 19.439 67.9338 19.0223 67.1865 19.0076L68.8819 15.6716C69.1944 15.0562 69.1623 14.3397 68.7961 13.7543C68.4299 13.1688 67.7948 12.8193 67.0972 12.8193H67.0932L67.8949 11.339C68.2285 10.7231 68.2102 9.99759 67.8462 9.39858C67.4823 8.79956 66.8426 8.44162 66.1342 8.44162H59.4989C58.7545 8.44162 58.0776 8.84529 57.732 9.49512L53.1429 18.1134C52.8156 18.7287 52.8373 19.452 53.2018 20.0476C53.5663 20.6427 54.2049 20.9983 54.9104 20.9983H56.3117L55.4208 22.9218C54.1997 22.6271 52.9249 22.4691 51.6128 22.4691C51.4337 22.4691 51.254 22.4747 51.0744 22.4804C51.0395 22.3849 51 22.2901 50.9536 22.1969C50.4873 21.2682 49.5449 20.6912 48.4949 20.6912H47.0878L50.8598 13.2676C51.2895 12.4224 51.2454 11.4373 50.7419 10.6327C50.2384 9.82765 49.3658 9.3472 48.4073 9.3472H46.8727L49.0619 5.30484C49.5202 4.45798 49.4951 3.46037 48.995 2.63722C48.4943 1.81351 47.6148 1.32233 46.6415 1.32233H34.477C33.4545 1.32233 32.5241 1.87674 32.0486 2.7699L30.5871 5.51373C30.305 6.04387 30.5116 6.69934 31.0489 6.97768C31.5862 7.25601 32.2505 7.0522 32.5326 6.52207L33.9935 3.77823C34.0885 3.60095 34.2739 3.4903 34.477 3.4903H46.6415C46.9213 3.4903 47.0626 3.67322 47.1101 3.75226C47.1582 3.83073 47.2555 4.04019 47.1239 4.28352L44.0711 9.92081C43.8892 10.2567 43.8995 10.6627 44.098 10.989C44.2966 11.3159 44.6542 11.5157 45.0405 11.5157H48.4073C48.6825 11.5157 48.8244 11.6947 48.8725 11.7715C48.9206 11.8483 49.019 12.0538 48.896 12.2965L44.3263 21.2897C44.1553 21.6261 44.173 22.0253 44.3733 22.3449C44.5735 22.665 44.9272 22.8597 45.3083 22.8597H48.4949C48.801 22.8597 48.9395 23.0698 48.9847 23.1595C49.0299 23.2499 49.1151 23.4853 48.9297 23.7258L44.8968 28.9487C44.5289 29.4252 44.6222 30.1055 45.1051 30.468C45.3037 30.6176 45.5377 30.6898 45.77 30.6898C46.1013 30.6898 46.4286 30.5425 46.6449 30.2625L50.6772 25.0396C50.7717 24.9176 50.8529 24.7889 50.9239 24.6562C51.1533 24.6449 51.3839 24.6376 51.6134 24.6376C59.2283 24.6376 65.4241 30.7508 65.4241 38.2647C65.4241 38.7644 65.3949 39.2748 65.3377 39.7823C64.9171 42.3991 63.684 44.8381 61.77 46.8373C61.3529 47.2725 61.3729 47.9585 61.8141 48.3701C62.0264 48.5677 62.2976 48.6659 62.5682 48.6659C62.8595 48.6659 63.1507 48.5519 63.367 48.3266C65.3114 46.2958 66.6509 43.867 67.2826 41.2457C70.5368 42.258 72.8021 45.2406 72.8021 48.6953C72.8021 53.0052 69.2487 56.5113 64.8805 56.5113C63.2091 56.5113 61.6092 56.002 60.2542 55.0377C59.8543 54.7532 59.3107 54.7667 58.9262 55.0705C56.6396 56.8731 53.8816 57.8256 50.9496 57.8256C48.4748 57.8256 46.0739 57.1272 44.0059 55.805C43.7341 55.6311 43.3977 55.5848 43.0875 55.6779C42.7774 55.7717 42.525 55.9952 42.398 56.2899C40.3839 60.9533 35.7633 63.967 30.6266 63.967C25.6141 63.967 21.0496 61.0617 18.9777 56.5604C17.3704 52.2098 18.342 47.3872 21.5166 43.9692C21.9263 43.5283 21.8959 42.8423 21.4485 42.4381C21.001 42.0333 20.3063 42.0632 19.8961 42.5047C16.4611 46.2032 15.2229 51.3019 16.5229 56.0782C16.0131 56.1386 15.4998 56.1703 14.986 56.1703C12.3493 56.1703 9.81668 55.3844 7.6629 53.8973C7.16566 53.554 6.48073 53.6737 6.13283 54.1638C5.78493 54.6544 5.90624 55.3302 6.40348 55.6734C8.92805 57.4168 11.8961 58.3382 14.9866 58.3382C15.7682 58.3382 16.5504 58.2784 17.3217 58.1587C19.8875 63.0315 25.0179 66.135 30.6266 66.135C34.5302 66.135 38.1786 64.6485 40.9051 62.1141C46.586 63.4838 50.5451 66.2852 52.6748 70.4455C53.4753 72.0089 55.0615 72.9799 56.8147 72.9799C58.4541 72.9799 59.9361 72.1511 60.7784 70.7628C61.6212 69.3751 61.6619 67.6949 60.8877 66.2688L56.8347 58.8006C57.8258 58.384 58.7728 57.8645 59.654 57.2441C61.2293 58.1858 63.0203 58.6798 64.8811 58.6798C70.4607 58.6798 75 54.2005 75 48.6953C75 44.16 71.9427 40.2622 67.5996 39.0772ZM57.5288 23.5875L59.0217 20.3649C59.1773 20.0295 59.1487 19.6388 58.9468 19.3283C58.7448 19.0178 58.3963 18.8304 58.0221 18.8304H55.2434L59.6208 10.6096H65.7989L64.2917 13.3924C64.1098 13.7283 64.1201 14.1342 64.3186 14.4606C64.5172 14.7874 64.8748 14.9873 65.261 14.9873H66.7716L64.425 19.6055C64.2545 19.9415 64.2723 20.3412 64.4725 20.6607C64.6722 20.9808 65.0259 21.1756 65.4069 21.1756H66.739L62.4864 26.6831C61.0519 25.371 59.3748 24.3141 57.5288 23.5875ZM58.9508 67.2913C59.3564 68.0388 59.3353 68.9201 58.8935 69.6478C58.4512 70.3761 57.6747 70.8103 56.8147 70.8103C55.8952 70.8103 55.0603 70.2959 54.6363 69.4671C52.3509 65.0013 48.29 61.9244 42.5559 60.3029C43.0503 59.661 43.4961 58.9751 43.8846 58.249C46.0498 59.3928 48.4685 59.993 50.9502 59.993C52.2302 59.993 53.4999 59.8264 54.7279 59.5103L58.9508 67.2913Z" fill="white"/>
</svg>
