<svg width="68" height="67" viewBox="0 0 68 67" fill="none" xmlns="http://www.w3.org/2000/svg">
<path d="M50.6246 4.38847C49.9889 4.02678 49.175 4.24165 48.8079 4.86807C48.4408 5.4958 48.6589 6.29639 49.2947 6.65809C49.9304 7.02109 50.7443 6.80622 51.1114 6.17849C51.4785 5.5522 51.2604 4.75148 50.6246 4.38847Z" fill="white"/>
<path d="M34.0001 0C33.2659 0 32.6701 0.587032 32.6701 1.31042C32.6701 2.0338 33.2659 2.62084 34.0001 2.62084C34.7343 2.62084 35.3301 2.0338 35.3301 1.31042C35.3301 0.587032 34.7343 0 34.0001 0Z" fill="white"/>
<path d="M34.0001 34.8567C33.2659 34.8567 32.6701 35.4437 32.6701 36.1671C32.6701 36.8905 33.2659 37.4775 34.0001 37.4775C34.7343 37.4775 35.3301 36.8905 35.3301 36.1671C35.3301 35.4439 34.7343 34.8567 34.0001 34.8567Z" fill="white"/>
<path d="M19.1923 4.86819C18.8252 4.24177 18.0114 4.0269 17.3756 4.3886C16.7398 4.7516 16.5217 5.55219 16.8888 6.17861C17.2559 6.80634 18.0698 7.02121 18.7056 6.65821C19.3412 6.29651 19.5594 5.49579 19.1923 4.86819Z" fill="white"/>
<path d="M34.0001 5.24164C33.2656 5.24164 32.6701 5.82828 32.6701 6.55206V11.7937C32.6701 12.5175 33.2656 13.1041 34.0001 13.1041C34.7345 13.1041 35.3301 12.5175 35.3301 11.7937V6.55193C35.3301 5.82828 34.7345 5.24164 34.0001 5.24164Z" fill="white"/>
<path d="M24.5122 13.9479L21.8524 9.4074C21.4851 8.78059 20.6719 8.56533 20.0357 8.92754C19.3995 9.28937 19.1815 10.0906 19.5487 10.7176L22.2086 15.2582C22.4551 15.6787 22.902 15.9137 23.3618 15.9137C23.5872 15.9137 23.816 15.857 24.0254 15.7379C24.6614 15.3761 24.8795 14.5747 24.5122 13.9479Z" fill="white"/>
<path d="M47.9645 8.92782C47.328 8.56587 46.515 8.78074 46.1478 9.40768L43.4879 13.9482C43.1206 14.5749 43.3387 15.3763 43.9749 15.7381C44.1843 15.8572 44.4129 15.9138 44.6384 15.9138C45.0982 15.9138 45.5451 15.6787 45.7916 15.2584L48.4516 10.7178C48.8188 10.091 48.6007 9.28952 47.9645 8.92782Z" fill="white"/>
<path d="M61.9289 36.1582C61.9288 36.1421 61.9279 36.1261 61.9271 36.1099C61.9263 36.0931 61.9252 36.0764 61.9239 36.0595C61.923 36.0488 61.9228 36.0379 61.9216 36.0273C61.92 36.0127 61.9174 35.998 61.9154 35.9835C61.913 35.9671 61.9102 35.9508 61.9073 35.9343C61.905 35.922 61.9036 35.9095 61.9009 35.8974C61.8983 35.8852 61.8947 35.8732 61.8918 35.861C61.8876 35.8442 61.8831 35.8275 61.8783 35.8107C61.8745 35.7973 61.8712 35.7835 61.8669 35.7702C61.8639 35.7607 61.8599 35.7515 61.8566 35.742C61.8503 35.7242 61.8437 35.7066 61.8368 35.6889C61.8312 35.6749 61.826 35.6608 61.82 35.647C61.8168 35.6398 61.813 35.6328 61.8097 35.6256C61.8012 35.6071 61.7921 35.5891 61.7828 35.5709C61.7757 35.557 61.7688 35.5431 61.7611 35.5297C61.7597 35.5273 61.7588 35.5249 61.7575 35.5226L53.7881 21.6322C53.7841 21.6253 53.7791 21.6194 53.775 21.6126C53.7528 21.5753 53.7286 21.539 53.7026 21.5041C53.6958 21.4949 53.6893 21.4856 53.6824 21.4766C53.6493 21.4343 53.6139 21.3934 53.5755 21.3552C53.575 21.3547 53.5743 21.3541 53.5736 21.3535C53.5372 21.3174 53.4978 21.2837 53.4569 21.2517C53.4467 21.2437 53.4363 21.2362 53.4259 21.2286C53.393 21.2044 53.3585 21.1817 53.3227 21.1601C53.3112 21.1531 53.2999 21.1458 53.2881 21.1393C53.2428 21.1139 53.196 21.0902 53.1469 21.0698C53.1464 21.0695 53.1458 21.0693 53.1452 21.069C53.145 21.0689 53.1448 21.0689 53.1446 21.0687C53.0952 21.0483 53.045 21.0321 52.9947 21.0178C52.9806 21.0139 52.9664 21.0109 52.9522 21.0074C52.9126 20.9975 52.8729 20.9897 52.8331 20.9835C52.8189 20.9814 52.8049 20.9791 52.7906 20.9774C52.7373 20.971 52.684 20.9669 52.6311 20.9669C52.6309 20.9669 52.6308 20.9669 52.6305 20.9669H52.6303C52.628 20.9669 52.6259 20.9669 52.6236 20.9669H34.0001H33.9966H15.3828C15.3277 20.9668 15.2726 20.971 15.2172 20.9777C15.2043 20.9792 15.1917 20.9814 15.1789 20.9834C15.1387 20.9896 15.0985 20.9975 15.0584 21.0075C15.0435 21.0112 15.0287 21.0146 15.0141 21.0187C14.9707 21.031 14.9275 21.0457 14.8848 21.0626C14.8776 21.0655 14.8703 21.0674 14.8631 21.0704C14.8619 21.071 14.8606 21.0712 14.8594 21.0717C14.8113 21.0919 14.7656 21.1152 14.7214 21.1402C14.7103 21.1465 14.6998 21.1535 14.6889 21.1601C14.653 21.1815 14.6185 21.2044 14.5854 21.2289C14.5745 21.2369 14.5638 21.245 14.553 21.2534C14.5161 21.2823 14.4808 21.3129 14.4476 21.3452C14.4432 21.3494 14.4385 21.3532 14.4343 21.3575C14.3962 21.3956 14.3607 21.436 14.3279 21.4782C14.3216 21.4862 14.3161 21.4947 14.31 21.5028C14.2838 21.538 14.2594 21.5745 14.237 21.6121C14.2331 21.6189 14.228 21.6247 14.224 21.6316L6.25998 35.4931C6.25971 35.4935 6.25958 35.4938 6.25931 35.4942L6.24351 35.5215C6.24218 35.5239 6.24125 35.5264 6.23979 35.5287C6.23155 35.5433 6.22412 35.5582 6.21641 35.5731C6.20685 35.5915 6.19755 35.61 6.18892 35.629C6.18626 35.6347 6.18334 35.6405 6.18069 35.6462C6.17418 35.661 6.1686 35.6762 6.16262 35.6914C6.15545 35.7095 6.14855 35.7275 6.14217 35.746C6.13938 35.7538 6.13619 35.7617 6.13367 35.7695C6.12902 35.7839 6.12557 35.7987 6.12132 35.8134C6.11641 35.8306 6.11149 35.8479 6.10737 35.8656C6.10485 35.876 6.1018 35.8864 6.09954 35.8968C6.09675 35.9101 6.09502 35.9237 6.09263 35.937C6.08958 35.954 6.08652 35.971 6.08413 35.9884C6.08241 36.0013 6.08015 36.0141 6.07882 36.0269C6.07749 36.0387 6.07736 36.0506 6.0763 36.0624C6.07484 36.0798 6.07351 36.0971 6.07284 36.1146C6.07231 36.129 6.07152 36.1434 6.07138 36.1578C6.07138 36.1608 6.07098 36.1638 6.07098 36.1668C6.07098 36.1749 6.07205 36.1829 6.07218 36.191C6.07245 36.2083 6.07311 36.2256 6.07404 36.243C6.07484 36.2572 6.07563 36.2715 6.07696 36.2858C6.07802 36.2979 6.07948 36.3098 6.08094 36.3219C6.08294 36.3384 6.08533 36.3547 6.08798 36.3712C6.09011 36.3842 6.0921 36.3971 6.09462 36.4099C6.09715 36.4233 6.0998 36.4365 6.10286 36.4497C6.10644 36.4656 6.11056 36.4811 6.11468 36.4968C6.11773 36.5085 6.12092 36.5201 6.12424 36.5318C6.12836 36.5458 6.13248 36.5596 6.13699 36.5735C6.14191 36.5884 6.14748 36.6031 6.15293 36.6177C6.15718 36.6291 6.16156 36.6405 6.16608 36.6519C6.17166 36.6655 6.1771 36.6791 6.18308 36.6926C6.18905 36.7062 6.19569 36.7196 6.2022 36.7329C6.20818 36.7451 6.21429 36.7571 6.22053 36.7691C6.2273 36.7818 6.23394 36.7945 6.24112 36.8071C6.24789 36.819 6.25493 36.8306 6.2621 36.8424C6.27007 36.8555 6.27844 36.8685 6.28694 36.8813C6.29477 36.8932 6.30287 36.9048 6.31111 36.9165C6.31841 36.9267 6.32558 36.9369 6.33329 36.9471C6.34312 36.9602 6.35321 36.9729 6.36357 36.9857C6.373 36.9972 6.38283 37.0084 6.39252 37.0196C6.3981 37.026 6.40275 37.0328 6.40859 37.0392L33.1743 66.5625C33.2071 66.5988 33.2421 66.6329 33.2785 66.665C33.2838 66.6695 33.2896 66.6735 33.2949 66.6781C33.3332 66.7109 33.3735 66.7411 33.4151 66.7693C33.4286 66.7784 33.4424 66.7871 33.4562 66.7957C33.495 66.8198 33.5349 66.8418 33.5758 66.8619C33.5871 66.8674 33.5978 66.8736 33.6092 66.8788C33.6609 66.9022 33.7139 66.9222 33.7683 66.9391C33.7814 66.9432 33.7946 66.9461 33.8078 66.9496C33.8515 66.9616 33.8958 66.9714 33.9407 66.9792C33.9572 66.9819 33.9735 66.9848 33.9901 66.987C34.0482 66.9946 34.1065 66.9998 34.1658 66.9998C34.1673 66.9998 34.1686 66.9998 34.17 66.9998C34.2295 66.9997 34.288 66.9942 34.3462 66.9864C34.3628 66.9841 34.379 66.9813 34.3956 66.9784C34.4406 66.9705 34.4853 66.9606 34.5291 66.9483C34.5422 66.9446 34.5555 66.9417 34.5685 66.9375C34.623 66.9205 34.6761 66.9001 34.7279 66.8763C34.7392 66.8711 34.7499 66.8649 34.7611 66.8594C34.8021 66.8391 34.8421 66.8168 34.8809 66.7923C34.8948 66.7835 34.9085 66.7748 34.9222 66.7655C34.9634 66.7373 35.0032 66.7071 35.0412 66.6744C35.0469 66.6694 35.0532 66.6651 35.0589 66.6601C35.0953 66.6275 35.1303 66.5931 35.1633 66.5564L61.5968 37.0343C61.6016 37.0289 61.6054 37.0231 61.6101 37.0178C61.6188 37.0077 61.6276 36.9975 61.6361 36.9872C61.6475 36.9732 61.6584 36.959 61.6692 36.9446C61.6766 36.9347 61.6839 36.9247 61.6911 36.9147C61.6985 36.9042 61.7057 36.8935 61.7129 36.8827C61.7222 36.8687 61.7309 36.8546 61.7397 36.8403C61.7469 36.8286 61.754 36.817 61.7608 36.8051C61.7672 36.7937 61.7732 36.7822 61.7793 36.7706C61.786 36.7576 61.7925 36.7444 61.7989 36.7312C61.8056 36.7176 61.8123 36.7041 61.8184 36.6904C61.8239 36.6781 61.8287 36.6656 61.8337 36.6532C61.8386 36.641 61.8433 36.6287 61.8478 36.6163C61.8534 36.6013 61.8592 36.5862 61.8643 36.571C61.8684 36.5585 61.8718 36.5458 61.8757 36.5331C61.8794 36.5205 61.8826 36.5078 61.8859 36.4951C61.89 36.4792 61.8945 36.4633 61.898 36.4471C61.9007 36.4352 61.9029 36.4232 61.9052 36.411C61.9078 36.397 61.91 36.3829 61.9122 36.3687C61.9147 36.3522 61.9174 36.3359 61.9194 36.3193C61.9207 36.3085 61.9219 36.2977 61.9228 36.2868C61.9243 36.2711 61.925 36.2554 61.9259 36.2394C61.9268 36.2225 61.9276 36.2057 61.9279 36.1889C61.928 36.1819 61.9289 36.1749 61.9289 36.1679C61.9293 36.1641 61.9289 36.1612 61.9289 36.1582ZM50.6309 23.5872L46.3188 33.7259L36.9991 23.5872H50.6309ZM31.0222 23.5872L21.7869 33.74L17.3936 23.5872H31.0222ZM15.2125 25.2295L19.3785 34.8566H9.682L15.2125 25.2295ZM10.3724 37.4775H20.5123L29.772 58.8751L10.3724 37.4775ZM34.1558 62.3236L23.4038 37.4775H28.6803C29.4148 37.4775 30.0103 36.8908 30.0103 36.1671C30.0103 35.4433 29.4148 34.8566 28.6803 34.8566H24.3432L34.0054 24.2343L43.7696 34.8566H39.3201C38.5857 34.8566 37.9902 35.4433 37.9902 36.1671C37.9902 36.8908 38.5857 37.4775 39.3201 37.4775H44.7233L34.1558 62.3236ZM38.518 58.8484L47.6073 37.4775H57.6527L38.518 58.8484ZM48.7217 34.8566L52.808 25.2493L58.3199 34.8566H48.7217Z" fill="white"/>
</svg>
