<svg width="73" height="76" viewBox="0 0 73 76" fill="none" xmlns="http://www.w3.org/2000/svg">
<g clip-path="url(#clip0)">
<path d="M11.9877 39.7078C11.1222 38.7294 11.1222 37.2538 11.9872 36.2748C18.7368 28.6399 27.4162 24.4352 36.4265 24.4352C45.4356 24.4352 54.1156 28.6399 60.8669 36.2748C61.7324 37.2538 61.7324 38.7294 60.8669 39.7083C59.743 40.9784 58.5378 42.1806 57.2841 43.2812C56.8358 43.6751 56.1607 43.6214 55.7764 43.1619C55.3927 42.7018 55.4445 42.0099 55.8928 41.6161C57.078 40.5754 58.2187 39.4383 59.2824 38.2356C59.4055 38.0963 59.4055 37.8863 59.2824 37.747C52.9416 30.5762 44.8247 26.6272 36.4265 26.6272C28.0277 26.6272 19.9114 30.5762 13.5722 37.7464C13.4486 37.8863 13.4486 38.0963 13.5722 38.2356C19.9119 45.4047 28.0283 49.3531 36.4265 49.3531C41.9926 49.3531 47.3137 47.6931 52.2421 44.4194C52.7378 44.0906 53.3994 44.235 53.7208 44.7437C54.0421 45.2511 53.9007 45.9298 53.405 46.2592C48.1992 49.7173 42.3279 51.5451 36.4265 51.5451C27.4173 51.5451 18.7379 47.3409 11.9877 39.7078Z" fill="white"/>
<path d="M4.52293 56.4777C5.48032 56.0712 6.57193 56.2938 7.30432 57.0445L10.7863 60.6133C11.2035 61.0409 11.2035 61.735 10.7863 62.1631C10.3686 62.5913 9.69139 62.5913 9.27368 62.1631L5.79165 58.5943C5.62234 58.4202 5.43743 58.4619 5.34164 58.5024C5.2464 58.5429 5.08656 58.6474 5.08656 58.8934V69.6884C5.08656 69.9225 5.27202 70.112 5.49981 70.112H16.0322C16.2723 70.112 16.3742 69.9481 16.4137 69.8505C16.4533 69.7529 16.4939 69.5634 16.3241 69.3893L12.5663 65.5379C12.1492 65.1098 12.1492 64.4162 12.5663 63.9881C12.9841 63.56 13.6613 63.56 14.079 63.9881L17.8367 67.8395C18.5691 68.5901 18.7858 69.709 18.3898 70.6896C17.9932 71.6703 17.0681 72.304 16.0322 72.304H5.49981C4.09241 72.304 2.94788 71.1309 2.94788 69.6884V58.8934C2.94788 57.8322 3.56609 56.8835 4.52293 56.4777Z" fill="white"/>
<path d="M2.54914 8.96394C1.14174 8.96394 -0.00278473 7.79088 -0.00278473 6.34896V3.19569C-0.00278473 1.7532 1.14174 0.580139 2.54914 0.580139H5.62571C7.03255 0.580139 8.17708 1.7532 8.17708 3.19569V3.67633H32.3374V3.19569C32.3374 1.7532 33.4819 0.580139 34.8888 0.580139H37.9653C39.3727 0.580139 40.5173 1.7532 40.5173 3.19569V3.67633H64.6776V3.19569C64.6776 1.7532 65.8221 0.580139 67.2289 0.580139H70.3055C71.7129 0.580139 72.8574 1.7532 72.8574 3.19569V6.34896C72.8574 7.79088 71.7129 8.96394 70.3061 8.96394H69.9067V33.798H70.3061C71.7129 33.798 72.8574 34.971 72.8574 36.4135V39.5668C72.8574 41.0087 71.7129 42.1823 70.3061 42.1823H69.9067V67.0158H70.3061C71.7129 67.0158 72.8574 68.1888 72.8574 69.6313V72.7846C72.8574 74.2271 71.7129 75.4001 70.3055 75.4001H67.2289C65.8221 75.4001 64.6776 74.2271 64.6776 72.7846V72.304H40.5173V72.7846C40.5173 74.2271 39.3727 75.4001 37.9659 75.4001H34.8893C33.4819 75.4001 32.3374 74.2271 32.3374 72.7846V69.6313C32.3374 68.1894 33.4819 67.0163 34.8893 67.0163H37.9659C39.3727 67.0163 40.5173 68.1894 40.5173 69.6313V70.112H64.6776V69.6313C64.6776 68.1894 65.8221 67.0163 67.2289 67.0163H67.7681V42.1823H67.2289C65.8221 42.1823 64.6776 41.0093 64.6776 39.5668V36.4135C64.6776 34.971 65.8221 33.798 67.2289 33.798H67.7681V8.96394H67.2289C65.8221 8.96394 64.6776 7.79088 64.6776 6.34896V5.86832H40.5173V6.34896C40.5173 7.79088 39.3727 8.96394 37.9659 8.96394H34.8893C33.4819 8.96394 32.3374 7.79088 32.3374 6.34896V5.86832H8.17764V6.34896C8.17764 7.79088 7.03311 8.96394 5.62571 8.96394H5.08714V33.798H5.62571C7.03311 33.798 8.17764 34.971 8.17764 36.4135V39.5668C8.17764 41.0087 7.03311 42.1823 5.62571 42.1823H2.54914C1.1423 42.1823 -0.00222778 41.0087 -0.00222778 39.5668V36.4135C-0.00222778 34.971 1.1423 33.798 2.54914 33.798H2.94847V8.96394H2.54914ZM38.3786 69.6313C38.3786 69.3979 38.1937 69.2083 37.9659 69.2083H34.8893C34.6615 69.2083 34.4761 69.3979 34.4761 69.6313V72.7846C34.4761 73.0181 34.6615 73.2082 34.8893 73.2082H37.9659C38.1937 73.2082 38.3786 73.0181 38.3786 72.7846V69.6313ZM67.2289 69.2083C67.0011 69.2083 66.8162 69.3979 66.8162 69.6313V72.7846C66.8162 73.0181 67.0011 73.2082 67.2289 73.2082H70.3055C70.5333 73.2082 70.7188 73.0181 70.7188 72.7846V69.6313C70.7188 69.3979 70.5333 69.2083 70.3055 69.2083H67.2289ZM67.2289 35.9899C67.0011 35.9899 66.8162 36.18 66.8162 36.4135V39.5668C66.8162 39.8003 67.0011 39.9903 67.2289 39.9903H70.3055C70.5333 39.9903 70.7188 39.8003 70.7188 39.5668V36.4135C70.7188 36.18 70.5333 35.9899 70.3055 35.9899H67.2289ZM66.8162 6.34896C66.8162 6.58243 67.0011 6.77195 67.2289 6.77195H70.3055C70.5333 6.77195 70.7188 6.58243 70.7188 6.34896V3.19569C70.7188 2.96222 70.5333 2.77213 70.3055 2.77213H67.2289C67.0011 2.77213 66.8162 2.96222 66.8162 3.19569V6.34896ZM34.4761 6.34896C34.4761 6.58243 34.661 6.77195 34.8888 6.77195H37.9653C38.1931 6.77195 38.3786 6.58243 38.3786 6.34896V3.19569C38.3786 2.96222 38.1931 2.77213 37.9653 2.77213H34.8888C34.661 2.77213 34.4761 2.96222 34.4761 3.19569V6.34896ZM2.54914 35.9899C2.32135 35.9899 2.13589 36.18 2.13589 36.4135V39.5668C2.13589 39.8003 2.32135 39.9903 2.54914 39.9903H5.62571C5.8535 39.9903 6.03841 39.8003 6.03841 39.5668V36.4135C6.03841 36.18 5.8535 35.9899 5.62571 35.9899H2.54914ZM5.62571 6.77195C5.8535 6.77195 6.03841 6.58243 6.03841 6.34896V3.19569C6.03841 2.96222 5.8535 2.77213 5.62571 2.77213H2.54914C2.32135 2.77213 2.13589 2.96222 2.13589 3.19569V6.34896C2.13589 6.58243 2.32135 6.77195 2.54914 6.77195H5.62571Z" fill="white"/>
<path d="M28.9022 36.4278C28.7858 37.0209 28.2216 37.4056 27.6429 37.2857C27.0637 37.1659 26.6894 36.5882 26.8058 35.9951C27.7237 31.3217 31.7704 27.9298 36.4271 27.9298C41.8395 27.9298 46.2427 32.4428 46.2427 37.9901C46.2427 43.5375 41.8395 48.0505 36.4271 48.0505C32.2784 48.0505 28.5602 45.3579 27.1745 41.35C26.9774 40.7798 27.2687 40.153 27.8256 39.9509C28.3826 39.7489 28.9935 40.0474 29.1907 40.6177C30.2739 43.7521 33.1823 45.8585 36.4271 45.8585C40.6604 45.8585 44.104 42.3285 44.104 37.9901C44.104 33.6512 40.6604 30.1218 36.4271 30.1218C32.7846 30.1218 29.6201 32.7739 28.9022 36.4278Z" fill="white"/>
<path d="M34.5641 32.4263C35.6128 32.4263 36.5323 32.996 37.0508 33.8471C39.0113 34.1553 40.5173 35.8958 40.5173 37.9902C40.5173 40.302 38.6827 42.1823 36.4271 42.1823C34.172 42.1823 32.3374 40.302 32.3374 37.9902C32.3374 37.8012 32.3508 37.6128 32.3753 37.4262C31.9141 36.8953 31.6312 36.1977 31.6312 35.4323C31.6312 33.7746 32.9467 32.4263 34.5641 32.4263ZM34.5641 34.6183C34.1263 34.6183 33.7699 34.9836 33.7699 35.4323C33.7699 35.8809 34.1263 36.2463 34.5641 36.2463C35.0018 36.2463 35.3577 35.8809 35.3577 35.4323C35.3577 34.9836 35.0018 34.6183 34.5641 34.6183ZM36.4271 39.9903C37.5031 39.9903 38.3786 39.093 38.3786 37.9902C38.3786 37.2435 37.977 36.5922 37.3839 36.2486C37.0358 37.5101 35.9046 38.4377 34.5641 38.4377C34.5513 38.4377 34.539 38.436 34.5268 38.436C34.725 39.3248 35.5009 39.9903 36.4271 39.9903Z" fill="white"/>
</g>
<defs>
<clipPath id="clip0">
<rect width="73" height="74.82" transform="matrix(-1 0 0 1 73 0.580139)" fill="white"/>
</clipPath>
</defs>
</svg>
