<svg width="66" height="66" viewBox="0 0 66 66" fill="none" xmlns="http://www.w3.org/2000/svg">
<path d="M53.266 0H19.4648V23.332H0V58.1367H19.4648V66H66V12.734L53.266 0ZM54.3984 6.60191L59.3981 11.6016H54.3984V6.60191ZM3.86719 27.1992H42.668V54.2695H3.86719V27.1992ZM23.332 62.1328V58.1367H46.5352V23.332H23.332V3.86719H50.5312V15.4688H62.1328V62.1328H23.332Z" fill="white"/>
<path d="M7.86328 50.4023H19.4648V38.8008H13.6641V42.668H15.5977V46.5352H11.7305V34.9336H19.4648V31.0664H7.86328V50.4023Z" fill="white"/>
<path d="M31.0664 50.4023H34.9336V42.668H38.8008V38.8008H34.9336V34.9336H38.8008V31.0664H31.0664V50.4023Z" fill="white"/>
<path d="M23.332 31.0664H27.1992V50.4023H23.332V31.0664Z" fill="white"/>
</svg>
