<svg width="66" height="66" viewBox="0 0 66 66" fill="none" xmlns="http://www.w3.org/2000/svg">
<path d="M3.48047 0L9.18658 59.4902L33.0549 66L56.9237 59.4902L62.6298 0H3.48047ZM53.2997 56.4378L33.0549 61.9591L12.8106 56.4378L7.77063 3.89841H58.3391L53.2997 56.4378Z" fill="white"/>
<path d="M16.3242 35.5696H39.3032L38.9236 41.4907L33.2048 43.3573L27.1805 41.4962V38.2686H16.1182V49.3827L33.2018 54.696L49.1202 50.066L51.1938 24.9404L26.1915 24.6533L25.9025 22.0682L51.2794 22.0687V11.4037H13.6267L16.3242 35.5696ZM47.3815 15.3021V18.1703L21.5439 18.1693L22.7005 28.512L46.9641 28.7904L45.456 47.0714L33.2396 50.6249L20.0171 46.5125V42.1675H23.2821V44.372L33.2371 47.4476L42.6447 44.377L43.4594 31.6712H19.8117L17.9843 15.3021H47.3815Z" fill="white"/>
</svg>
