<svg width="124" height="42" viewBox="0 0 124 42" fill="none" xmlns="http://www.w3.org/2000/svg">
<g clip-path="url(#clip0)">
<path d="M14.9209 42L4.42869 29.4538H7.53748C9.45368 29.4538 11.0081 29.2117 12.2007 28.7274C13.1053 28.2989 13.8914 27.6612 14.4921 26.8686C15.1287 26.0835 15.4728 25.1069 15.4669 24.1019C15.461 23.1915 15.176 22.3043 14.6495 21.5563C14.0556 20.7065 13.2474 20.0238 12.3045 19.5753C11.221 19.0532 10.0264 18.7939 8.82053 18.8193H1.7487V41.9901H0V17.1057H8.82053C9.96153 17.0959 11.0954 17.2836 12.1705 17.6604C13.1732 18.0109 14.097 18.5503 14.8907 19.2485C15.6156 19.8786 16.2036 20.6468 16.6193 21.5068C17.1119 22.5278 17.31 23.6626 17.1918 24.7871C17.0736 25.9116 16.6438 26.9824 15.9493 27.8822C15.1772 28.9292 14.1367 29.7553 12.9343 30.2759C12.1915 30.6129 11.4007 30.8356 10.5893 30.9362C9.78317 31.0286 8.97217 31.0738 8.16058 31.0716L17.2525 42H14.9209Z" fill="white"/>
<path d="M24.0161 42V17.1057H40.3775V18.8688H25.7648V28.6746H37.1548V30.4377H25.7648V40.2039H40.3775V42.0033L24.0161 42Z" fill="white"/>
<path d="M54.2866 42H47.0205V17.1058H54.2866C55.9965 17.0942 57.6902 17.4314 59.2614 18.0962C60.7682 18.7327 62.1194 19.6794 63.2244 20.8729C64.2807 22.0192 65.1071 23.3524 65.6599 24.8018C66.7998 27.8423 66.7998 31.1842 65.6599 34.2247C65.0994 35.6893 64.2692 37.0392 63.211 38.2065C62.115 39.4197 60.7622 40.3811 59.248 41.0227C57.68 41.6812 55.991 42.0139 54.2866 42ZM48.7692 40.2799H54.2866C57.4133 40.2799 59.9649 39.1947 61.9414 37.0245C62.8563 36.0415 63.5635 34.8889 64.0217 33.6337C64.9791 30.9836 64.9791 28.0891 64.0217 25.4391C63.5633 24.184 62.8561 23.0314 61.9414 22.0483C59.947 19.9286 57.3954 18.8688 54.2866 18.8688H48.7692V40.2799Z" fill="white"/>
<path d="M72.4338 41.9999L72.3936 17.1057H81.405C82.8302 17.0936 84.2372 17.4222 85.5054 18.0631C86.7071 18.6545 87.7365 19.5373 88.497 20.6285C89.2188 21.6625 89.6052 22.888 89.6052 24.1431C89.6052 25.3982 89.2188 26.6237 88.497 27.6577C87.7415 28.7582 86.7112 29.6485 85.5054 30.2428C84.237 30.8829 82.83 31.2103 81.405 31.197H74.1824V41.9966L72.4338 41.9999ZM74.1824 29.3844H81.405C82.5214 29.3952 83.6253 29.1523 84.6311 28.6746C85.5642 28.2415 86.3709 27.5828 86.9761 26.7596C87.5445 25.9992 87.8509 25.0793 87.8504 24.1348C87.8548 23.1785 87.5484 22.246 86.9761 21.4737C86.3708 20.6507 85.5641 19.9919 84.6311 19.5588C83.6239 19.087 82.5201 18.8497 81.405 18.8654H74.1456L74.1824 29.3844Z" fill="white"/>
<path d="M95.9839 42V17.1057H97.7326V42H95.9839Z" fill="white"/>
<path d="M124 17.1057L114.985 29.5528L124 42H121.863L113.936 31.0056L106.01 41.9967H103.873L112.895 29.5528L103.88 17.1057H106.017L113.936 28.0968L121.863 17.1057H124Z" fill="white"/>
<path d="M113.95 0L105.752 11.8099L113.95 23.6165L122.144 11.8099L113.95 0Z" fill="url(#paint0_linear)"/>
<path d="M113.95 0L106.47 10.7765L113.95 21.553L121.427 10.7765L113.95 0Z" fill="url(#paint1_linear)"/>
<path d="M113.95 0L107.22 9.69688L113.95 19.3938L120.68 9.69688L113.95 0Z" fill="url(#paint2_linear)"/>
</g>
<defs>
<linearGradient id="paint0_linear" x1="113.95" y1="0" x2="113.95" y2="23.6165" gradientUnits="userSpaceOnUse">
<stop stop-color="#D40000"/>
<stop offset="0.17" stop-color="#D00000"/>
<stop offset="0.35" stop-color="#C30000"/>
<stop offset="0.53" stop-color="#AD0000"/>
<stop offset="0.72" stop-color="#8F0000"/>
<stop offset="0.91" stop-color="#690000"/>
<stop offset="1" stop-color="#540000"/>
</linearGradient>
<linearGradient id="paint1_linear" x1="113.95" y1="0" x2="113.95" y2="21.553" gradientUnits="userSpaceOnUse">
<stop stop-color="#D40000"/>
<stop offset="0.38" stop-color="#D20000"/>
<stop offset="0.57" stop-color="#CA0000"/>
<stop offset="0.71" stop-color="#BD0000"/>
<stop offset="0.83" stop-color="#AB0000"/>
<stop offset="0.94" stop-color="#930000"/>
<stop offset="1" stop-color="#820000"/>
</linearGradient>
<linearGradient id="paint2_linear" x1="113.95" y1="0" x2="113.95" y2="19.3938" gradientUnits="userSpaceOnUse">
<stop stop-color="#D40000"/>
<stop offset="0.28" stop-color="#D40202"/>
<stop offset="0.42" stop-color="#D60A0A"/>
<stop offset="0.53" stop-color="#D81717"/>
<stop offset="0.62" stop-color="#DB2929"/>
<stop offset="0.7" stop-color="#DF4242"/>
<stop offset="0.77" stop-color="#E45F5F"/>
<stop offset="0.84" stop-color="#EA8383"/>
<stop offset="0.9" stop-color="#F1ACAC"/>
<stop offset="0.96" stop-color="#F9D9D9"/>
<stop offset="1" stop-color="white"/>
</linearGradient>
<clipPath id="clip0">
<rect width="124" height="42" fill="white"/>
</clipPath>
</defs>
</svg>
