<svg width="67" height="63" viewBox="0 0 67 63" fill="none" xmlns="http://www.w3.org/2000/svg">
<path fill-rule="evenodd" clip-rule="evenodd" d="M1.33569 26.8636C2.05849 26.8636 2.64429 26.3128 2.64429 25.6332V6.48159C2.64429 5.21459 3.74075 4.18359 5.08819 4.18359H61.9139C63.2613 4.18359 64.3578 5.21459 64.3578 6.48159V10.247C64.3578 10.9262 64.9436 11.4775 65.6664 11.4775C66.3892 11.4775 66.975 10.9262 66.975 10.247V6.48159C66.975 3.85771 64.7043 1.72266 61.9139 1.72266H5.08819C2.29771 1.72266 0.0270996 3.85771 0.0270996 6.48159V25.6332C0.0270996 26.3128 0.6129 26.8636 1.33569 26.8636Z" fill="white"/>
<path fill-rule="evenodd" clip-rule="evenodd" d="M65.6661 19.0559C64.9433 19.0559 64.3575 19.6072 64.3575 20.2864V39.4384C64.3575 40.7054 63.2611 41.7364 61.9136 41.7364H5.08794C3.7405 41.7364 2.64404 40.7054 2.64404 39.4384V35.673C2.64404 34.9934 2.05824 34.4425 1.33545 34.4425C0.612656 34.4425 0.0268555 34.9934 0.0268555 35.673V39.4384C0.0268555 42.0623 2.29747 44.1974 5.08794 44.1974H61.9136C64.7041 44.1974 66.9747 42.0623 66.9747 39.4384V20.2864C66.9747 19.6072 66.3889 19.0559 65.6661 19.0559Z" fill="white"/>
<path fill-rule="evenodd" clip-rule="evenodd" d="M25.1179 12.0831C24.7131 11.8634 24.2142 11.8634 23.8093 12.0831C23.4045 12.3027 23.155 12.7089 23.155 13.1487V32.7708C23.155 33.2106 23.4045 33.6168 23.8093 33.8364C24.0117 33.9465 24.2377 34.0013 24.4636 34.0013C24.6896 34.0013 24.9155 33.9465 25.1179 33.8364L43.1903 24.0254C43.5952 23.8057 43.8446 23.3995 43.8446 22.9597C43.8446 22.5204 43.5952 22.1143 43.1903 21.8941L25.1179 12.0831ZM25.7722 30.6401V15.2799L39.9193 22.9597L25.7722 30.6401Z" fill="white"/>
<path fill-rule="evenodd" clip-rule="evenodd" d="M65.6661 53.2375H22.872V52.0781C22.872 49.6124 20.7394 47.6071 18.1171 47.6071C15.4954 47.6071 13.3622 49.6124 13.3622 52.0781V53.2375H1.33545C0.612656 53.2375 0.0268555 53.7883 0.0268555 54.4679C0.0268555 55.1476 0.612656 55.6984 1.33545 55.6984H13.3622V56.8573C13.3622 59.323 15.4954 61.3283 18.1171 61.3283C20.7394 61.3283 22.872 59.323 22.872 56.8573V55.6984H65.6661C66.3889 55.6984 66.9747 55.1476 66.9747 54.4679C66.9747 53.7883 66.3889 53.2375 65.6661 53.2375ZM20.2549 56.8573C20.2549 57.9661 19.2959 58.8674 18.1171 58.8674C16.9384 58.8674 15.9794 57.9661 15.9794 56.8573V52.0781C15.9794 50.9698 16.9384 50.0681 18.1171 50.0681C19.2959 50.0681 20.2549 50.9698 20.2549 52.0781V56.8573Z" fill="white"/>
<path fill-rule="evenodd" clip-rule="evenodd" d="M1.33466 31.9081C2.06973 31.9081 2.66933 31.3443 2.66933 30.6531C2.66933 29.9619 2.06973 29.3981 1.33466 29.3981C0.599602 29.3981 0 29.9619 0 30.6531C0 31.3443 0.599602 31.9081 1.33466 31.9081Z" fill="white"/>
<path fill-rule="evenodd" clip-rule="evenodd" d="M65.6655 14.0115C64.9304 14.0115 64.3308 14.5753 64.3308 15.2665C64.3308 15.9576 64.9304 16.5214 65.6655 16.5214C66.4005 16.5214 67.0001 15.9576 67.0001 15.2665C67.0001 14.5753 66.4005 14.0115 65.6655 14.0115Z" fill="white"/>
</svg>
