<svg width="68" height="67" viewBox="0 0 68 67" fill="none" xmlns="http://www.w3.org/2000/svg">
<path d="M55.6484 16.4883C54.9153 16.4883 54.3203 17.0745 54.3203 17.7969C54.3203 18.5192 54.9153 19.1055 55.6484 19.1055C56.3816 19.1055 56.9766 18.5192 56.9766 17.7969C56.9766 17.0745 56.3816 16.4883 55.6484 16.4883Z" fill="white"/>
<path d="M64.0156 8.63672H13.1476C12.5306 5.65378 9.84752 3.40234 6.64062 3.40234C2.97898 3.40234 0 6.33752 0 9.94531V57.0547C0 57.4153 0.0304141 57.782 0.0903125 58.1442C0.603898 61.2532 3.54211 63.5977 6.92484 63.5977H61.3594C63.5564 63.5977 65.3438 61.8366 65.3438 59.6719V58.1382C66.8896 57.598 68 56.1435 68 54.4375V12.5625C68 10.3978 66.2126 8.63672 64.0156 8.63672ZM2.65625 9.94531C2.65625 7.78064 4.44364 6.01953 6.64062 6.01953C8.83761 6.01953 10.625 7.78064 10.625 9.94531V51.8238C9.51429 51.0005 8.13437 50.5117 6.64062 50.5117C5.14688 50.5117 3.76696 51.0005 2.65625 51.8238V9.94531ZM62.6875 59.6719C62.6875 60.3934 62.0917 60.9805 61.3594 60.9805H6.92484C4.82986 60.9805 3.0187 59.5804 2.71203 57.7236C2.67498 57.4999 2.65625 57.2748 2.65625 57.0547C2.65625 54.89 4.44364 53.1289 6.64062 53.1289C8.83761 53.1289 10.625 54.89 10.625 57.0547C10.625 57.7773 11.2196 58.3633 11.9531 58.3633H22.9766H33.6016H45.0234H55.6484H62.6875V59.6719ZM28.2891 39.5898C29.6572 39.5898 31.0246 39.2776 32.2734 38.6574V55.7461H24.3047V38.6574C25.5535 39.2776 26.921 39.5898 28.2891 39.5898ZM24.6258 35.7933L28.2891 28.5745L31.9523 35.7933C29.7819 37.3673 26.7962 37.3673 24.6258 35.7933ZM52.9922 32.1914H54.3203V34.8086H50.3359C49.6024 34.8086 49.0078 35.3946 49.0078 36.1172C49.0078 36.8398 49.6024 37.4258 50.3359 37.4258H54.3203V40.043H52.9922C52.2587 40.043 51.6641 40.629 51.6641 41.3516C51.6641 42.0742 52.2587 42.6602 52.9922 42.6602H54.3203V45.2773H50.3359C49.6024 45.2773 49.0078 45.8633 49.0078 46.5859C49.0078 47.3085 49.6024 47.8945 50.3359 47.8945H54.3203V50.5117H52.9922C52.2587 50.5117 51.6641 51.0977 51.6641 51.8203C51.6641 52.5429 52.2587 53.1289 52.9922 53.1289H54.3203V55.7461H46.3516V26.957H54.3203V29.5742H52.9922C52.2587 29.5742 51.6641 30.1602 51.6641 30.8828C51.6641 31.6054 52.2587 32.1914 52.9922 32.1914ZM64.0156 55.7461H56.9766V25.6484C56.9766 24.9258 56.382 24.3398 55.6484 24.3398H45.0234C44.2899 24.3398 43.6953 24.9258 43.6953 25.6484V55.7461H34.9297V36.1178C34.9297 36.0706 34.9265 36.0234 34.9213 35.9763C34.9199 35.9628 34.9173 35.9494 34.9155 35.9361C34.9107 35.9024 34.905 35.8689 34.8975 35.8356C34.8942 35.8211 34.8905 35.8067 34.8868 35.7921C34.8783 35.7594 34.8685 35.727 34.8573 35.6948C34.8528 35.6818 34.8485 35.669 34.8436 35.6562C34.8301 35.6207 34.8147 35.5858 34.7979 35.5513C34.7949 35.5449 34.7926 35.5381 34.7894 35.5319L34.7799 35.5131C34.7787 35.511 34.7777 35.5088 34.7766 35.5066L29.4768 25.0631C29.252 24.6199 28.7922 24.3398 28.2891 24.3398C27.786 24.3398 27.3262 24.6199 27.1012 25.0632L21.8014 35.5067C21.8002 35.509 21.7993 35.511 21.7981 35.5133L21.7886 35.532C21.7854 35.5384 21.7831 35.5451 21.7801 35.5515C21.7633 35.5859 21.7479 35.6208 21.7344 35.6563C21.7295 35.6691 21.7252 35.6819 21.7207 35.6949C21.7095 35.7271 21.6997 35.7594 21.6912 35.7923C21.6875 35.8067 21.6838 35.8211 21.6804 35.8357C21.673 35.8691 21.6673 35.9024 21.6625 35.9362C21.6607 35.9497 21.6581 35.9629 21.6567 35.9764C21.6515 36.0235 21.6483 36.0706 21.6483 36.118V55.7461H13.2811V11.2539H64.0155C64.7478 11.2539 65.3436 11.8409 65.3436 12.5625V54.4375H65.3438C65.3438 55.1591 64.748 55.7461 64.0156 55.7461Z" fill="white"/>
<path d="M50.3359 16.4883H22.9766C22.243 16.4883 21.6484 17.0743 21.6484 17.7969C21.6484 18.5195 22.243 19.1055 22.9766 19.1055H50.3359C51.0695 19.1055 51.6641 18.5195 51.6641 17.7969C51.6641 17.0743 51.0695 16.4883 50.3359 16.4883Z" fill="white"/>
</svg>
