<svg width="65" height="68" viewBox="0 0 65 68" fill="none" xmlns="http://www.w3.org/2000/svg">
<path d="M55.7725 46.33L55.681 46.2331C55.1864 45.7133 54.3824 45.7116 53.8856 46.229C53.3887 46.7465 53.3869 47.5876 53.8816 48.1074L53.9573 48.1873C54.2061 48.4534 54.5354 48.5868 54.865 48.5868C55.185 48.5868 55.5056 48.4609 55.7525 48.2082C56.2537 47.6953 56.2627 46.8544 55.7725 46.33Z" fill="white"/>
<path d="M63.7305 65.3438H60.1758V57.6252C60.1758 55.1012 59.6013 52.5803 58.5142 50.3347C58.1975 49.6802 57.4332 49.4186 56.8082 49.75C56.1826 50.0813 55.9325 50.8805 56.2492 51.5347C57.157 53.41 57.6368 55.5162 57.6368 57.6251V65.3438H7.36328V57.6167C7.36328 51.3273 11.6255 45.7841 17.4978 44.4364L21.839 43.44C22.6653 43.2504 23.4355 42.9154 24.1285 42.4659C26.4542 44.5728 29.3926 45.7226 32.4999 45.7226C35.596 45.7226 38.5243 44.581 40.846 42.4887C41.5295 42.9257 42.2869 43.252 43.0987 43.4377L47.4933 44.4428C48.5766 44.6905 49.6237 45.082 50.6055 45.6065C50.7904 45.7052 50.9875 45.752 51.1818 45.752C51.6436 45.752 52.089 45.4875 52.3134 45.0276C52.6324 44.3743 52.3845 43.5745 51.7601 43.2408C50.5846 42.6129 49.3314 42.1443 48.0356 41.8479L43.6412 40.8428C41.4209 40.3349 39.8093 38.2406 39.8093 35.863V35.3507C42.6598 33.6526 44.7269 30.6756 45.2928 27.1713H45.8882C47.8861 27.1713 49.5116 25.4708 49.5116 23.3806V20.8682C49.5116 18.7781 47.8861 17.0776 45.8882 17.0776H45.4492V11.6433C45.4492 5.22312 40.4565 0 34.3196 0H30.6804C24.5435 0 19.5508 5.22312 19.5508 11.6433V17.0774H19.1117C17.1138 17.0774 15.4883 18.778 15.4883 20.868V23.3804C15.4883 25.4706 17.1138 27.1712 19.1117 27.1712H19.7071C20.2686 30.6479 22.3077 33.6059 25.1235 35.3106V35.8665C25.1235 38.2426 23.5134 40.3365 21.2951 40.8456L16.954 41.8419C13.5284 42.628 10.4312 44.6354 8.23316 47.4941C6.03484 50.3529 4.82422 53.9478 4.82422 57.6167V65.3438H1.26953C0.568496 65.3438 0 65.9385 0 66.6719C0 67.4053 0.568496 68 1.26953 68H6.09375H58.9062H63.7305C64.4315 68 65 67.4053 65 66.6719C65 65.9385 64.4315 65.3438 63.7305 65.3438ZM45.4492 19.7337H45.8884C46.4863 19.7337 46.9727 20.2425 46.9727 20.868V23.3804C46.9727 24.006 46.4863 24.5149 45.8884 24.5149H45.4492V19.7337ZM19.5508 24.5149H19.1117C18.5137 24.5149 18.0273 24.006 18.0273 23.3804V20.868C18.0273 20.2425 18.5137 19.7337 19.1117 19.7337H19.5508V24.5149ZM32.5 43.0666C30.1215 43.0666 27.8671 42.2252 26.0451 40.6791C26.9543 39.4813 27.53 38.0068 27.6412 36.4277C28.6076 36.7148 29.6272 36.8688 30.6804 36.8688H34.3196C35.3491 36.8688 36.3462 36.7211 37.2931 36.4461C37.4094 38.033 37.9939 39.5134 38.9146 40.7121C37.0995 42.2366 34.8612 43.0666 32.5 43.0666ZM22.0898 11.6433C22.0898 6.68777 25.9435 2.65625 30.6804 2.65625H34.3196C38.6139 2.65625 42.1825 5.96992 42.8116 10.2814C42.7122 10.3396 42.6183 10.4118 42.5337 10.5002C38.4795 14.7417 33.0891 17.0773 27.3556 17.0773H22.0898V11.6433ZM22.0898 25.2256V19.7337H27.3556C30.5238 19.7337 33.6145 19.0905 36.5416 17.8221C38.8715 16.8125 41.006 15.4449 42.9102 13.7474V18.4056V25.2256C42.9102 30.1811 39.0565 34.2125 34.3196 34.2125H30.6804C25.9435 34.2125 22.0898 30.181 22.0898 25.2256Z" fill="white"/>
<path d="M15.8804 49.364C15.4454 48.7892 14.6471 48.6917 14.097 49.1469C11.6066 51.2088 10.1782 54.296 10.1782 57.6167C10.1782 58.3501 10.7467 58.9448 11.4478 58.9448C12.1488 58.9448 12.7173 58.3501 12.7173 57.6167C12.7173 55.1127 13.7945 52.7847 15.6728 51.2298C16.2225 50.7745 16.3155 49.9392 15.8804 49.364Z" fill="white"/>
<path d="M19.7991 48.0812C19.648 47.3649 18.9707 46.9128 18.2857 47.0706L18.2269 47.0843C17.5423 47.2434 17.1108 47.9529 17.2629 48.6689C17.3943 49.2879 17.919 49.7092 18.501 49.7092C18.5923 49.7092 18.6848 49.6988 18.7776 49.6773L18.8332 49.6644C19.5179 49.5064 19.9503 48.7976 19.7991 48.0812Z" fill="white"/>
</svg>
