<svg width="66" height="66" viewBox="0 0 66 66" fill="none" xmlns="http://www.w3.org/2000/svg">
<g clip-path="url(#clip0)">
<path d="M65.8939 63.1815L45.8069 1.48603C45.5195 0.602895 44.6905 0 43.7605 0H43.7604H22.2387C21.3069 0 20.4808 0.59993 20.1923 1.4859L0.105268 63.1815C-0.108072 63.8367 0.00523678 64.5546 0.410131 65.1122C0.815026 65.6699 1.46265 66 2.15178 66H17.4179C22.0856 66 26.1998 63.0175 27.6569 58.574L32.9996 42.162L38.3438 58.5785C39.7995 63.0175 43.9137 66 48.5814 66H63.8475C64.5366 66 65.1841 65.67 65.589 65.1124C65.9939 64.5547 66.1072 63.8368 65.8939 63.1815ZM23.5654 57.2372C22.6909 59.9039 20.2204 61.6957 17.418 61.6957H5.11585L23.8013 4.30431H40.7965L23.5654 57.2372ZM48.5814 61.6957C45.7788 61.6957 43.3085 59.9039 42.4354 57.2416L35.263 35.2097L43.7608 9.10491L60.8834 61.6958H48.5814V61.6957Z" fill="white"/>
</g>
<defs>
<clipPath id="clip0">
<rect width="66" height="66" fill="white"/>
</clipPath>
</defs>
</svg>
