<svg width="18" height="13" viewBox="0 0 18 13" fill="none" xmlns="http://www.w3.org/2000/svg">
<path d="M17.8898 6.25885L12.2649 0.663971C12.1184 0.51826 11.8811 0.51826 11.7346 0.663971C11.5881 0.809683 11.5881 1.04572 11.7346 1.19139L16.7194 6.14958H0.375004C0.167727 6.14958 0 6.31641 0 6.52258C0 6.72875 0.167727 6.89559 0.375004 6.89559H16.7194L11.7346 11.8537C11.5881 11.9994 11.5881 12.2355 11.7346 12.3812C11.8079 12.454 11.9038 12.4904 11.9998 12.4904C12.0957 12.4904 12.1916 12.454 12.2649 12.3812L17.8898 6.78628C18.0363 6.6406 18.0363 6.40457 17.8898 6.25885Z" fill="white"/>
</svg>
