<svg width="66" height="63" viewBox="0 0 66 63" fill="none" xmlns="http://www.w3.org/2000/svg">
<g clip-path="url(#clip0)">
<path fill-rule="evenodd" clip-rule="evenodd" d="M61.8408 25.897C61.1288 25.897 60.5517 26.4479 60.5517 27.1275V35.1693H5.54297V27.1275C5.54297 26.4479 4.96591 25.897 4.25391 25.897C3.5419 25.897 2.96484 26.4479 2.96484 27.1275V36.3998C2.96484 37.0794 3.5419 37.6302 4.25391 37.6302H31.7583V49.672L19.9961 60.8995C19.493 61.3797 19.493 62.1589 19.9961 62.6395C20.2479 62.8798 20.5777 63 20.908 63C21.2378 63 21.5676 62.8798 21.8194 62.6395L31.7583 53.1524V61.7695C31.7583 62.4492 32.3353 63 33.0473 63C33.7588 63 34.3364 62.4492 34.3364 61.7695V53.1529L44.2748 62.6395C44.5265 62.8798 44.8564 63 45.1867 63C45.5165 63 45.8463 62.8798 46.0981 62.6395C46.6011 62.1593 46.6011 61.3802 46.0981 60.8995L34.3364 49.6725V37.6302H61.8403C62.5523 37.6302 63.1293 37.0794 63.1293 36.3998V27.1275C63.1298 26.4479 62.5523 25.897 61.8408 25.897Z" fill="white"/>
<path fill-rule="evenodd" clip-rule="evenodd" d="M61.8408 0H4.25391C3.5419 0 2.96484 0.550827 2.96484 1.23047V17.2838C2.96484 17.9629 3.5419 18.5142 4.25391 18.5142C4.96591 18.5142 5.54297 17.9629 5.54297 17.2838V9.24149H60.5512V17.2838C60.5512 17.9629 61.1288 18.5142 61.8403 18.5142C62.5523 18.5142 63.1293 17.9629 63.1293 17.2838V1.23047C63.1298 0.550827 62.5523 0 61.8408 0ZM5.54297 6.78056V2.46094H60.5512V6.78056H5.54297Z" fill="white"/>
<path fill-rule="evenodd" clip-rule="evenodd" d="M26.0386 31.1611C26.2606 31.1611 26.4837 31.1063 26.6831 30.9963L40.7007 23.2707C41.0995 23.0511 41.3452 22.6449 41.3452 22.2056C41.3452 21.7658 41.0995 21.3597 40.7007 21.14L26.6831 13.4145C26.2838 13.1948 25.7928 13.1948 25.394 13.4145C24.9952 13.6342 24.7495 14.0408 24.7495 14.4801V29.9307C24.7495 30.3705 24.9952 30.7766 25.394 30.9963C25.5934 31.1063 25.8155 31.1611 26.0386 31.1611ZM27.3276 16.6113L37.478 22.2056L27.3276 27.7994V16.6113Z" fill="white"/>
<path fill-rule="evenodd" clip-rule="evenodd" d="M4.25391 23.4361C4.9639 23.4361 5.54297 22.8833 5.54297 22.2056C5.54297 21.5274 4.9639 20.9752 4.25391 20.9752C3.54392 20.9752 2.96484 21.5274 2.96484 22.2056C2.96484 22.8833 3.54442 23.4361 4.25391 23.4361Z" fill="white"/>
<path fill-rule="evenodd" clip-rule="evenodd" d="M61.8408 20.9752C61.1303 20.9752 60.5518 21.5274 60.5518 22.2056C60.5518 22.8833 61.1303 23.4361 61.8408 23.4361C62.5508 23.4361 63.1299 22.8833 63.1299 22.2056C63.1299 21.5274 62.5508 20.9752 61.8408 20.9752Z" fill="white"/>
</g>
<defs>
<clipPath id="clip0">
<rect width="66" height="63" fill="white"/>
</clipPath>
</defs>
</svg>
