<svg width="68" height="68" viewBox="0 0 68 68" fill="none" xmlns="http://www.w3.org/2000/svg">
<g clip-path="url(#clip0)">
<path d="M19.4966 37.9185C18.7635 37.9185 18.1685 38.5034 18.1685 39.224C18.1685 39.9446 18.7635 40.5294 19.4966 40.5294C20.2298 40.5294 20.8248 39.9446 20.8248 39.224C20.8248 38.5034 20.2298 37.9185 19.4966 37.9185Z" fill="white"/>
<path d="M19.4966 43.1403C18.7631 43.1403 18.1685 43.7248 18.1685 44.4458V60.8945C18.1685 61.6155 18.7631 62.1999 19.4966 62.1999C20.2302 62.1999 20.8248 61.6155 20.8248 60.8945V44.4458C20.8248 43.7248 20.23 43.1403 19.4966 43.1403Z" fill="white"/>
<path d="M56.3383 1.56379C56.2288 1.14408 55.9146 0.805058 55.4997 0.658978C55.0846 0.513029 54.623 0.578693 54.2674 0.834562C52.9402 1.7895 46.2648 6.70153 45.1775 9.63645C44.5311 11.3846 44.678 13.2928 45.5458 14.9092C43.9175 17.2049 42.2309 20.3748 40.7466 23.472V1.88806C40.7466 1.16706 40.1519 0.582609 39.4185 0.582609H28.7935C28.0599 0.582609 27.4653 1.16706 27.4653 1.88806V27.4749H27.2269L24.9585 18.8003C24.9574 18.796 24.9563 18.7917 24.9551 18.7874L22.8925 11.2223C22.8923 11.2221 22.8923 11.2218 22.8922 11.2215C22.8803 11.1781 22.8658 11.1352 22.8493 11.0931C22.8443 11.0801 22.8382 11.0677 22.8327 11.055C22.8202 11.0256 22.8072 10.9966 22.7925 10.9681C22.7853 10.9543 22.7775 10.941 22.7698 10.9274C22.7548 10.9006 22.7389 10.8743 22.7219 10.8486C22.7133 10.8356 22.7044 10.823 22.6954 10.8103C22.6772 10.7849 22.6581 10.7602 22.638 10.7359C22.6324 10.7292 22.6279 10.7219 22.6222 10.7154L14.7411 1.58768C14.4112 1.20557 13.8879 1.04291 13.3945 1.16889C12.9011 1.29486 12.5246 1.68741 12.4257 2.17905L10.0443 14.0091C10.0426 14.0178 10.0422 14.0267 10.0406 14.0353C10.0345 14.0694 10.0295 14.1034 10.0261 14.1376C10.0247 14.1521 10.0237 14.1666 10.0228 14.1811C10.0208 14.2138 10.02 14.2461 10.0204 14.2786C10.0206 14.2938 10.0207 14.3089 10.0215 14.3241C10.0231 14.3574 10.0264 14.3904 10.0307 14.4234C10.0324 14.437 10.0334 14.4504 10.0356 14.4639C10.0429 14.51 10.0522 14.5555 10.0644 14.6006L12.1246 22.1581L13.5066 27.5321C12.7004 27.6672 11.9574 28.0419 11.367 28.6222C10.6144 29.3621 10.1997 30.3455 10.1997 31.3912C10.1997 33.093 11.3102 34.5441 12.856 35.083V60.8945C12.856 64.4937 15.835 67.4218 19.4966 67.4218H46.0591C49.7207 67.4218 52.6997 64.4937 52.6997 60.8945V35.0852C53.2533 34.8932 53.761 34.5805 54.1887 34.1603C54.9415 33.4204 55.356 32.437 55.356 31.3913C55.356 29.4838 53.9609 27.8912 52.1212 27.5454C52.9875 24.0855 53.5982 20.647 53.8236 17.9492C55.5966 17.2752 56.9951 15.8915 57.6585 14.1007C58.748 11.16 56.75 3.14143 56.3383 1.56379ZM47.313 16.9993C47.8622 17.424 48.4791 17.7633 49.1469 18.0022C49.7852 18.2305 50.4486 18.36 51.1157 18.39C50.8494 20.9928 50.2392 24.2334 49.4009 27.4749H41.8088C43.837 22.9575 45.7103 19.3931 47.313 16.9993ZM30.1216 3.19352H38.0903V6.19606H35.4341C34.7007 6.19606 34.106 6.78051 34.106 7.50151C34.106 8.22251 34.7007 8.80696 35.4341 8.80696H38.0903V11.4179H35.4341C34.7007 11.4179 34.106 12.0023 34.106 12.7233C34.106 13.4443 34.7007 14.0288 35.4341 14.0288H38.0903V16.6397H35.4341C34.7007 16.6397 34.106 17.2241 34.106 17.9451C34.106 18.6661 34.7007 19.2506 35.4341 19.2506H38.0903V21.8615H35.4341C34.7007 21.8615 34.106 22.4459 34.106 23.1669C34.106 23.8879 34.7007 24.4724 35.4341 24.4724H38.0903V27.4749H30.1216V3.19352ZM14.497 5.34007L19.9459 11.6509C19.1268 12.668 18.0022 13.3975 16.7039 13.7392C15.4108 14.0798 14.0713 14.0025 12.8487 13.529L14.497 5.34007ZM13.2986 16.3778C13.887 16.499 14.4862 16.561 15.0888 16.561C15.8566 16.561 16.6297 16.4617 17.3913 16.2612C18.751 15.9033 19.9758 15.2458 20.995 14.3491L22.3877 19.457L24.4844 27.4749H16.2315L14.6973 21.5089C14.6958 21.5029 14.6942 21.4969 14.6925 21.491L13.2986 16.3778ZM50.0435 60.8945C50.0435 63.054 48.2561 64.8109 46.0591 64.8109H19.4966C17.2996 64.8109 15.5122 63.054 15.5122 60.8945V35.3077H50.0435V60.8945ZM52.6997 31.3913C52.6997 31.7396 52.5615 32.0674 52.3105 32.314C52.0593 32.5609 51.7259 32.6968 51.3716 32.6968H14.1841C13.4518 32.6968 12.856 32.1111 12.856 31.3913C12.856 31.043 12.9942 30.7152 13.2452 30.4686C13.4964 30.2217 13.8298 30.0858 14.1841 30.0858H26.1884C26.191 30.0858 26.1935 30.0861 26.1961 30.0861C26.1978 30.0861 26.1995 30.0858 26.2012 30.0858H39.7779C39.78 30.0858 39.7822 30.0861 39.7844 30.0861C39.7858 30.0861 39.7873 30.0858 39.7889 30.0858H50.4232C50.4248 30.0858 50.4265 30.0861 50.4281 30.0861C50.4308 30.0861 50.4333 30.0858 50.4359 30.0858H51.3717C52.1038 30.0858 52.6997 30.6715 52.6997 31.3913ZM55.1625 13.2075C54.6938 14.4728 53.614 15.4018 52.271 15.6932C51.5362 15.8543 50.7701 15.8043 50.0554 15.5488C49.315 15.2838 48.6776 14.8152 48.2125 14.1939C48.2124 14.1937 48.2121 14.1934 48.212 14.1931C47.418 13.134 47.217 11.7641 47.6734 10.5292C48.1712 9.18567 51.4109 6.32073 54.2305 4.14153C55.0061 7.60595 55.6593 11.8664 55.1625 13.2075Z" fill="white"/>
</g>
<defs>
<clipPath id="clip0">
<rect y="0.582581" width="68" height="66.8392" fill="white"/>
</clipPath>
</defs>
</svg>
