<svg width="79" height="80" viewBox="0 0 79 80" fill="none" xmlns="http://www.w3.org/2000/svg">
<path d="M60.4843 39.7267H40.7343V32.36H51.8436C53.1532 32.36 54.409 31.8425 55.335 30.9215C56.2609 30.0005 56.7812 28.7513 56.7812 27.4488C56.7812 26.1463 56.2609 24.8971 55.335 23.9761C54.409 23.0551 53.1532 22.5376 51.8436 22.5376H27.1561C26.5014 22.5376 25.8735 22.2789 25.4105 21.8184C24.9475 21.3579 24.6874 20.7333 24.6874 20.0821C24.6874 19.4308 24.9475 18.8062 25.4105 18.3457C25.8735 17.8852 26.5014 17.6265 27.1561 17.6265H39.4999C39.8273 17.6265 40.1412 17.4971 40.3727 17.2669C40.6042 17.0366 40.7343 16.7243 40.7343 16.3987V9.03193C40.7343 8.7063 40.6042 8.39401 40.3727 8.16375C40.1412 7.93349 39.8273 7.80414 39.4999 7.80414C39.1725 7.80414 38.8586 7.93349 38.6271 8.16375C38.3956 8.39401 38.2655 8.7063 38.2655 9.03193V15.1709H27.1561C25.8466 15.1709 24.5908 15.6883 23.6648 16.6093C22.7388 17.5304 22.2186 18.7795 22.2186 20.0821C22.2186 21.3846 22.7388 22.6338 23.6648 23.5548C24.5908 24.4758 25.8466 24.9932 27.1561 24.9932H51.8436C52.4984 24.9932 53.1263 25.2519 53.5893 25.7124C54.0523 26.173 54.3124 26.7975 54.3124 27.4488C54.3124 28.1001 54.0523 28.7247 53.5893 29.1852C53.1263 29.6457 52.4984 29.9044 51.8436 29.9044H39.4999C39.1725 29.9044 38.8586 30.0337 38.6271 30.264C38.3956 30.4943 38.2655 30.8066 38.2655 31.1322V39.7267H18.5155C15.669 39.7272 12.8738 40.4808 10.4166 41.9102C7.95947 43.3397 5.92883 45.3935 4.53297 47.8611C3.13711 50.3287 2.42628 53.1212 2.47339 55.9522C2.5205 58.7832 3.32385 61.5507 4.80105 63.971C6.27825 66.3913 8.37612 68.3772 10.8795 69.725C13.3828 71.0727 16.2016 71.7339 19.0466 71.6407C21.8916 71.5474 24.6605 70.7031 27.0692 69.1943C29.4779 67.6855 31.4398 65.5665 32.7536 63.0548H46.2462C47.5599 65.5669 49.5218 67.6863 51.9307 69.1954C54.3395 70.7045 57.1086 71.5491 59.9539 71.6425C62.7992 71.7359 65.6183 71.0747 68.1219 69.7269C70.6256 68.379 72.7237 66.3929 74.2011 63.9724C75.6784 61.5519 76.4818 58.784 76.5289 55.9527C76.5759 53.1215 75.8649 50.3287 74.4688 47.8609C73.0727 45.3931 71.0417 43.3392 68.5842 41.9098C66.1267 40.4804 63.3311 39.7269 60.4843 39.7267ZM52.9546 42.1823C52.6682 43.568 51.9102 44.8131 50.8084 45.7077C49.7066 46.6024 48.3284 47.0918 46.9061 47.0935H32.0936C30.6715 47.0916 29.2935 46.6021 28.1918 45.7075C27.0902 44.8129 26.3323 43.5679 26.046 42.1823H52.9546ZM60.4843 69.1937C57.885 69.1888 55.3414 68.4444 53.1537 67.0484C50.9659 65.6523 49.2254 63.6629 48.1374 61.3148C48.0389 61.1013 47.8808 60.9204 47.682 60.7935C47.4832 60.6666 47.2519 60.5992 47.0157 60.5992H31.9841C31.7479 60.5992 31.5166 60.6666 31.3177 60.7935C31.1188 60.9203 30.9607 61.1013 30.8622 61.3148C29.8469 63.5193 28.2537 65.4112 26.2498 66.792C24.246 68.1729 21.9054 68.9917 19.4737 69.1626C17.042 69.3335 14.6088 68.8501 12.4297 67.7632C10.2506 66.6763 8.40579 65.0259 7.08897 62.9854C5.77215 60.9448 5.03186 58.5893 4.9458 56.1661C4.85975 53.7428 5.4311 51.3412 6.59989 49.2133C7.76868 47.0854 9.49181 45.3097 11.5884 44.0726C13.685 42.8355 16.0778 42.1825 18.5155 42.1823H23.5427C23.8418 44.2266 24.8703 46.0956 26.4402 47.4481C28.0101 48.8006 30.0167 49.5463 32.0936 49.5491H46.9061C48.9831 49.5463 50.9897 48.8006 52.5596 47.4481C54.1295 46.0956 55.158 44.2266 55.4571 42.1823H60.4843C64.0854 42.1823 67.5391 43.6052 70.0855 46.138C72.6319 48.6708 74.0624 52.1061 74.0624 55.688C74.0624 59.27 72.6319 62.7052 70.0855 65.238C67.5391 67.7708 64.0854 69.1937 60.4843 69.1937Z" fill="white"/>
<path d="M37.0312 54.4602H32.0938C31.7664 54.4602 31.4524 54.5896 31.2209 54.8198C30.9894 55.0501 30.8594 55.3624 30.8594 55.688C30.8594 56.0136 30.9894 56.3259 31.2209 56.5562C31.4524 56.7864 31.7664 56.9158 32.0938 56.9158H37.0312C37.3586 56.9158 37.6726 56.7864 37.9041 56.5562C38.1356 56.3259 38.2656 56.0136 38.2656 55.688C38.2656 55.3624 38.1356 55.0501 37.9041 54.8198C37.6726 54.5896 37.3586 54.4602 37.0312 54.4602Z" fill="white"/>
<path d="M46.9062 54.4602H41.9688C41.6414 54.4602 41.3274 54.5896 41.0959 54.8198C40.8644 55.0501 40.7344 55.3624 40.7344 55.688C40.7344 56.0136 40.8644 56.3259 41.0959 56.5562C41.3274 56.7864 41.6414 56.9158 41.9688 56.9158H46.9062C47.2336 56.9158 47.5476 56.7864 47.7791 56.5562C48.0106 56.3259 48.1406 56.0136 48.1406 55.688C48.1406 55.3624 48.0106 55.0501 47.7791 54.8198C47.5476 54.5896 47.2336 54.4602 46.9062 54.4602Z" fill="white"/>
<path d="M23.4531 52.0046H22.2188V50.7768C22.2188 49.7999 21.8286 48.863 21.1341 48.1723C20.4397 47.4815 19.4978 47.0934 18.5156 47.0934C17.5335 47.0934 16.5916 47.4815 15.8971 48.1723C15.2026 48.863 14.8125 49.7999 14.8125 50.7768V52.0046H13.5781C12.596 52.0046 11.6541 52.3927 10.9596 53.0834C10.2651 53.7742 9.875 54.7111 9.875 55.688C9.875 56.6649 10.2651 57.6018 10.9596 58.2925C11.6541 58.9833 12.596 59.3714 13.5781 59.3714H14.8125V60.5992C14.8125 61.576 15.2026 62.5129 15.8971 63.2037C16.5916 63.8945 17.5335 64.2825 18.5156 64.2825C19.4978 64.2825 20.4397 63.8945 21.1341 63.2037C21.8286 62.5129 22.2188 61.576 22.2188 60.5992V59.3714H23.4531C24.4353 59.3714 25.3772 58.9833 26.0716 58.2925C26.7661 57.6018 27.1562 56.6649 27.1562 55.688C27.1562 54.7111 26.7661 53.7742 26.0716 53.0834C25.3772 52.3927 24.4353 52.0046 23.4531 52.0046ZM23.4531 56.9158H20.9844C20.657 56.9158 20.343 57.0451 20.1115 57.2754C19.88 57.5056 19.75 57.8179 19.75 58.1436V60.5992C19.75 60.9248 19.62 61.2371 19.3885 61.4673C19.157 61.6976 18.843 61.8269 18.5156 61.8269C18.1882 61.8269 17.8743 61.6976 17.6428 61.4673C17.4113 61.2371 17.2812 60.9248 17.2812 60.5992V58.1436C17.2812 57.8179 17.1512 57.5056 16.9197 57.2754C16.6882 57.0451 16.3743 56.9158 16.0469 56.9158H13.5781C13.2507 56.9158 12.9368 56.7864 12.7053 56.5562C12.4738 56.3259 12.3438 56.0136 12.3438 55.688C12.3438 55.3624 12.4738 55.0501 12.7053 54.8198C12.9368 54.5896 13.2507 54.4602 13.5781 54.4602H16.0469C16.3743 54.4602 16.6882 54.3308 16.9197 54.1006C17.1512 53.8703 17.2812 53.558 17.2812 53.2324V50.7768C17.2812 50.4512 17.4113 50.1389 17.6428 49.9086C17.8743 49.6784 18.1882 49.549 18.5156 49.549C18.843 49.549 19.157 49.6784 19.3885 49.9086C19.62 50.1389 19.75 50.4512 19.75 50.7768V53.2324C19.75 53.558 19.88 53.8703 20.1115 54.1006C20.343 54.3308 20.657 54.4602 20.9844 54.4602H23.4531C23.7805 54.4602 24.0945 54.5896 24.326 54.8198C24.5575 55.0501 24.6875 55.3624 24.6875 55.688C24.6875 56.0136 24.5575 56.3259 24.326 56.5562C24.0945 56.7864 23.7805 56.9158 23.4531 56.9158Z" fill="white"/>
<path d="M65.4219 52.0046C64.8692 52.004 64.3234 52.1272 63.8251 52.3651C64.0951 51.8037 64.2177 51.1833 64.1814 50.5619C64.1451 49.9405 63.9511 49.3384 63.6175 48.8119C63.2839 48.2853 62.8216 47.8513 62.2737 47.5506C61.7259 47.2499 61.1103 47.0922 60.4846 47.0922C59.8588 47.0922 59.2432 47.2499 58.6954 47.5506C58.1475 47.8513 57.6852 48.2853 57.3516 48.8119C57.018 49.3384 56.824 49.9405 56.7877 50.5619C56.7514 51.1833 56.874 51.8037 57.144 52.3651C56.5795 52.0965 55.9558 51.9746 55.3311 52.0107C54.7064 52.0468 54.1011 52.2398 53.5717 52.5716C53.0423 52.9034 52.606 53.3633 52.3037 53.9082C52.0013 54.4532 51.8428 55.0654 51.8428 55.6878C51.8428 56.3103 52.0013 56.9225 52.3037 57.4675C52.606 58.0124 53.0423 58.4723 53.5717 58.8041C54.1011 59.136 54.7064 59.3289 55.3311 59.365C55.9558 59.4011 56.5795 59.2792 57.144 59.0106C56.874 59.572 56.7514 60.1924 56.7877 60.8138C56.824 61.4352 57.018 62.0373 57.3516 62.5639C57.6852 63.0904 58.1475 63.5244 58.6954 63.8251C59.2432 64.1258 59.8588 64.2835 60.4846 64.2835C61.1103 64.2835 61.7259 64.1258 62.2737 63.8251C62.8216 63.5244 63.2839 63.0904 63.6175 62.5639C63.9511 62.0373 64.1451 61.4352 64.1814 60.8138C64.2177 60.1924 64.0951 59.572 63.8251 59.0106C64.3266 59.2493 64.8758 59.3726 65.4318 59.3714C65.9878 59.3701 66.5364 59.2444 67.0368 59.0035C67.5373 58.7625 67.9768 58.4126 68.3227 57.9796C68.6686 57.5466 68.9121 57.0417 69.035 56.5024C69.1579 55.963 69.1572 55.4031 69.0328 54.8641C68.9084 54.325 68.6636 53.8208 68.3166 53.3887C67.9695 52.9567 67.529 52.6079 67.0279 52.3683C66.5268 52.1287 65.9779 52.0044 65.4219 52.0046ZM60.4844 49.549C60.7285 49.549 60.9672 49.6211 61.1702 49.756C61.3732 49.8909 61.5314 50.0826 61.6248 50.307C61.7182 50.5313 61.7427 50.7782 61.6951 51.0164C61.6474 51.2545 61.5299 51.4733 61.3572 51.645C61.1846 51.8167 60.9647 51.9337 60.7252 51.981C60.4858 52.0284 60.2376 52.0041 60.012 51.9112C59.7865 51.8182 59.5937 51.6609 59.4581 51.459C59.3224 51.2571 59.25 51.0197 59.25 50.7768C59.2504 50.4513 59.3806 50.1392 59.612 49.9091C59.8434 49.6789 60.1571 49.5494 60.4844 49.549ZM62.0812 54.0997C61.8426 54.5956 61.7187 55.1384 61.7187 55.6882C61.7187 56.2379 61.8426 56.7807 62.0812 57.2766C61.5827 57.0392 61.037 56.916 60.4842 56.916C59.9315 56.916 59.3858 57.0392 58.8873 57.2766C59.1259 56.7807 59.2498 56.2379 59.2498 55.6882C59.2498 55.1384 59.1259 54.5956 58.8873 54.0997C59.3858 54.3371 59.9315 54.4603 60.4842 54.4603C61.037 54.4603 61.5827 54.3371 62.0812 54.0997ZM55.5469 56.9158C55.3028 56.9158 55.0641 56.8438 54.8611 56.7089C54.6581 56.574 54.4999 56.3822 54.4065 56.1579C54.3131 55.9335 54.2886 55.6866 54.3362 55.4485C54.3839 55.2103 54.5014 54.9915 54.6741 54.8198C54.8467 54.6481 55.0666 54.5312 55.3061 54.4838C55.5455 54.4364 55.7937 54.4607 56.0193 54.5537C56.2448 54.6466 56.4376 54.804 56.5732 55.0059C56.7089 55.2078 56.7813 55.4452 56.7813 55.688C56.7809 56.0135 56.6507 56.3256 56.4193 56.5558C56.1879 56.786 55.8742 56.9154 55.5469 56.9158ZM60.4844 61.827C60.2403 61.827 60.0016 61.755 59.7986 61.62C59.5956 61.4851 59.4374 61.2934 59.344 61.069C59.2506 60.8447 59.2261 60.5978 59.2737 60.3596C59.3214 60.1215 59.4389 59.9027 59.6116 59.731C59.7842 59.5593 60.0041 59.4423 60.2436 59.395C60.483 59.3476 60.7312 59.3719 60.9568 59.4648C61.1823 59.5578 61.3751 59.7151 61.5107 59.917C61.6464 60.119 61.7188 60.3563 61.7188 60.5992C61.7184 60.9247 61.5882 61.2368 61.3568 61.4669C61.1254 61.6971 60.8117 61.8266 60.4844 61.827ZM65.4219 56.9158C65.1778 56.9158 64.9391 56.8438 64.7361 56.7089C64.5331 56.574 64.3749 56.3822 64.2815 56.1579C64.1881 55.9335 64.1636 55.6866 64.2112 55.4485C64.2589 55.2103 64.3764 54.9915 64.5491 54.8198C64.7217 54.6481 64.9416 54.5312 65.1811 54.4838C65.4205 54.4364 65.6687 54.4607 65.8943 54.5537C66.1198 54.6466 66.3126 54.804 66.4482 55.0059C66.5839 55.2078 66.6563 55.4452 66.6563 55.688C66.6559 56.0135 66.5257 56.3256 66.2943 56.5558C66.0629 56.786 65.7492 56.9154 65.4219 56.9158Z" fill="white"/>
</svg>
