<svg width="66" height="68" viewBox="0 0 66 68" fill="none" xmlns="http://www.w3.org/2000/svg">
<path d="M37.8984 27.625H26.9753C26.2634 27.625 25.6862 28.2196 25.6862 28.9531C25.6862 29.6866 26.2634 30.2812 26.9753 30.2812H36.6094V59.5H8.25V30.2812H18.0808C18.7927 30.2812 19.3698 29.6866 19.3698 28.9531C19.3698 28.2196 18.7927 27.625 18.0808 27.625H6.96094C6.24899 27.625 5.67188 28.2196 5.67188 28.9531V60.8281C5.67188 61.5616 6.24899 62.1562 6.96094 62.1562H37.8984C38.6104 62.1562 39.1875 61.5616 39.1875 60.8281V28.9531C39.1875 28.2197 38.6104 27.625 37.8984 27.625Z" fill="white"/>
<path d="M64.7111 0H22.4298C21.7179 0 21.1408 0.594602 21.1408 1.32812V10.8906H11.8594C11.1474 10.8906 10.5703 11.4852 10.5703 12.2188V21.7812H1.28906C0.577113 21.7812 0 22.3759 0 23.1094V66.6719C0 67.4054 0.577113 68 1.28906 68H43.5703C44.2823 68 44.8594 67.4054 44.8594 66.6719V57.1094H54.1406C54.8526 57.1094 55.4297 56.5148 55.4297 55.7812V46.2188H64.7109C65.4229 46.2188 66 45.6241 66 44.8906V1.32812C66.0001 0.594734 65.423 0 64.7111 0ZM42.2812 55.7812V65.3438H2.57812V24.4375H11.8594H42.2812V55.7812ZM63.422 43.5625H55.4298V12.2188C55.4298 11.4852 54.8527 10.8906 54.1408 10.8906H44.4421C43.7302 10.8906 43.153 11.4852 43.153 12.2188C43.153 12.9523 43.7302 13.5469 44.4421 13.5469H52.8516V44.8906V54.4531H44.8594V23.1094C44.8594 22.3759 44.2823 21.7812 43.5703 21.7812H13.1484V13.5469H34.5163C35.2283 13.5469 35.8054 12.9523 35.8054 12.2188C35.8054 11.4852 35.2283 10.8906 34.5163 10.8906H23.7189V2.65625H63.422V43.5625Z" fill="white"/>
<path d="M22.4297 27.531C21.7177 27.531 21.1406 28.1256 21.1406 28.8591V29.0473C21.1406 29.7808 21.7177 30.3755 22.4297 30.3755C23.1416 30.3755 23.7188 29.7808 23.7188 29.0473V28.8591C23.7188 28.1256 23.1416 27.531 22.4297 27.531Z" fill="white"/>
<path d="M40.3581 11.2798C40.1184 11.0327 39.7858 10.8906 39.4468 10.8906C39.1078 10.8906 38.7752 11.0327 38.5354 11.2798C38.2956 11.5268 38.1577 11.8695 38.1577 12.2188C38.1577 12.568 38.2956 12.9107 38.5354 13.1577C38.7752 13.4048 39.1078 13.5469 39.4468 13.5469C39.7858 13.5469 40.1184 13.4048 40.3581 13.1577C40.5979 12.9107 40.7358 12.568 40.7358 12.2188C40.7358 11.8695 40.5979 11.5268 40.3581 11.2798Z" fill="white"/>
</svg>
