<svg width="103" height="104" viewBox="0 0 103 104" fill="none" xmlns="http://www.w3.org/2000/svg">
<path d="M62.8579 32.7726C62.2746 32.7726 61.8018 33.2501 61.8018 33.839V35.6093C61.8018 36.1982 62.2746 36.6757 62.8579 36.6757C63.4412 36.6757 63.914 36.1982 63.914 35.6093V33.839C63.914 33.2501 63.4412 32.7726 62.8579 32.7726Z" fill="white"/>
<path d="M42.9535 34.5678C42.3106 33.6445 41.2596 33.0932 40.1419 33.0932C39.0242 33.0932 37.9733 33.6445 37.3306 34.5678C36.9736 35.0806 37.096 35.7885 37.6039 36.149C38.1117 36.5093 38.8129 36.3858 39.1699 35.873C39.3954 35.5489 39.7497 35.3631 40.1421 35.3631C40.5344 35.3631 40.88 35.5553 41.1143 35.873C41.6531 36.6035 42.4836 36.2883 42.6802 36.149C43.1881 35.7885 43.3105 35.0806 42.9535 34.5678Z" fill="white"/>
<path d="M58.1065 38.0127C56.5191 36.8543 54.1111 36.1899 51.4999 36.1899C48.8888 36.1899 46.4806 36.8543 44.8933 38.0129C44.0398 38.6358 43.6972 39.6904 44.0206 40.6995C44.342 41.7023 45.2256 42.3503 46.2717 42.3503H46.7368C47.4337 43.9873 49.3128 45.1633 51.5168 45.1633C53.7208 45.1633 55.5997 43.9871 56.2968 42.3503H56.7281C57.7741 42.3503 58.6578 41.7023 58.9791 40.6995C59.3024 39.6904 58.96 38.6358 58.1065 38.0127ZM51.5168 43.0305C50.6736 43.0305 49.9014 42.7649 49.3567 42.3503H53.6768C53.1321 42.765 52.36 43.0305 51.5168 43.0305ZM56.7281 40.2175H46.2717C45.944 40.2175 45.9511 39.8593 46.1307 39.7414C47.3896 38.9145 49.3551 38.3227 51.4999 38.3227C53.6447 38.3227 55.6477 38.8587 56.8691 39.7414C57.0324 39.8594 57.1068 40.2175 56.7281 40.2175Z" fill="white"/>
<path d="M79.9573 50.4687C77.2867 45.5614 73.4733 42.6827 71.0782 41.2478V35.3684C71.0782 31.3212 69.8752 27.4302 67.5992 24.1163C67.2669 23.6324 66.6089 23.512 66.1295 23.8477C65.6501 24.1832 65.531 24.8477 65.8635 25.3317C67.8931 28.2871 68.9659 31.7577 68.9659 35.3684V41.6312C68.9659 44.7263 69.7962 47.7842 71.367 50.4742C73.4462 54.0349 74.5452 58.1135 74.5452 62.2695C74.5452 68.1781 72.3746 73.7553 68.4178 78.0678H63.0099C66.7125 74.8151 69.057 70.0248 69.057 64.6918C69.057 54.9164 61.1805 46.9635 51.4991 46.9635C45.0271 46.9635 39.0994 50.5412 36.0292 56.3005C35.7528 56.8191 35.945 57.4657 36.4586 57.745C36.972 58.0241 37.6126 57.83 37.8892 57.3114C40.5905 52.2442 45.8055 49.0964 51.4991 49.0964C60.0158 49.0964 66.9447 56.0926 66.9447 64.692C66.9447 73.2913 60.0158 80.2875 51.4991 80.2875C42.9825 80.2875 36.0537 73.2913 36.0537 64.692C36.0537 63.5028 36.1865 62.3184 36.4486 61.1716C36.5797 60.5977 36.2252 60.0251 35.6569 59.8927C35.0884 59.7601 34.5215 60.1181 34.3904 60.6921C34.0925 61.9959 33.9414 63.3418 33.9414 64.692C33.9414 70.025 36.2859 74.8153 39.9885 78.0679H34.641C30.6485 73.7342 28.4541 68.1421 28.4542 62.2695C28.4542 58.1134 29.5533 54.0347 31.6324 50.4742C33.2032 47.7843 34.0335 44.7263 34.0335 41.6312V35.3685C34.0338 25.6441 41.869 17.7328 51.4998 17.7328C55.7951 17.7328 59.9238 19.3216 63.1252 22.2066C63.5605 22.5986 64.2281 22.5603 64.6165 22.121C65.0049 21.6816 64.967 21.0074 64.5318 20.6152C60.9428 17.3812 56.3146 15.6 51.4998 15.6C40.7043 15.6 31.9215 24.4681 31.9215 35.3684V41.2478C29.5266 42.6827 25.7132 45.5612 23.0427 50.4684C19.5254 56.9308 18.9818 64.8929 21.4266 74.1333C21.7405 75.3193 22.571 76.2484 23.7055 76.6822C24.1377 76.8474 25.6653 77.1521 27.0653 76.301C27.8777 75.8072 28.7204 75.1916 29.5522 74.6333C30.2341 75.8551 31.0194 77.0256 31.9042 78.1331C29.4663 78.5261 27.5972 80.6634 27.5972 83.2339C27.5972 86.0825 29.8924 88.4 32.7136 88.4H41.3845C42.8277 88.4 44.1324 87.7924 45.0635 86.8184C47.1606 87.385 49.3219 87.6715 51.5038 87.6715C51.5648 87.6715 51.6257 87.6714 51.6866 87.671C53.809 87.6553 55.911 87.3695 57.9453 86.8267C58.8759 87.7958 60.1773 88.4 61.6166 88.4H70.2876C73.1088 88.4 75.404 86.0825 75.404 83.2339C75.404 80.6802 73.5589 78.5545 71.1442 78.1417C72.0218 77.0385 72.8007 75.8719 73.4766 74.6527C74.2996 75.2053 75.1451 75.7914 75.9347 76.3011C77.2878 77.1746 78.8624 76.8475 79.2945 76.6823C80.4289 76.2484 81.2595 75.3195 81.5734 74.1335C84.0179 64.893 83.4743 56.9311 79.9573 50.4687ZM25.8979 74.5236C25.465 74.8136 24.9387 74.8731 24.4537 74.6877C23.9631 74.5 23.6034 74.0974 23.4674 73.5829C21.1676 64.8913 21.6476 57.46 24.8937 51.4956C26.9062 47.7978 29.6316 45.3625 31.7508 43.8891C31.462 45.8175 30.8075 47.6878 29.813 49.3908C27.5423 53.2792 26.3422 57.7325 26.3421 62.2692C26.3421 65.918 27.1177 69.4668 28.5876 72.7194C27.6948 73.3192 26.7527 73.9512 25.8979 74.5236ZM41.3843 86.267H32.7135C31.057 86.267 29.7094 84.9063 29.7094 83.2337C29.7094 81.5612 31.057 80.2005 32.7135 80.2005H41.3843C43.0408 80.2005 44.3884 81.5612 44.3884 83.2337C44.3884 84.9063 43.0406 86.267 41.3843 86.267ZM51.6709 85.538C49.8297 85.5521 48.0022 85.3412 46.2215 84.9133C46.4015 84.3863 46.5006 83.8217 46.5006 83.2337C46.5006 82.6654 46.4079 82.1187 46.2392 81.6068C47.9006 82.1348 49.6676 82.4199 51.4994 82.4199C53.3321 82.4199 55.0996 82.1344 56.7617 81.6061C56.5929 82.1183 56.5001 82.6651 56.5001 83.2337C56.5001 83.8245 56.6001 84.392 56.7819 84.9211C55.1137 85.3159 53.4002 85.5252 51.6709 85.538ZM73.2913 83.2337C73.2913 84.9063 71.9437 86.267 70.2872 86.267H61.6164C59.9599 86.267 58.6124 84.9063 58.6124 83.2337C58.6124 81.5612 59.9599 80.2005 61.6164 80.2005H70.2874C71.9437 80.2006 73.2913 81.5613 73.2913 83.2337ZM79.5323 73.5829C79.3963 74.0974 79.0366 74.5 78.546 74.6877C78.0608 74.8731 77.5344 74.8134 77.1018 74.5236C76.2547 73.9565 75.3219 73.3307 74.4363 72.7359C75.8914 69.4889 76.6575 65.9377 76.6575 62.2695C76.6575 57.7329 75.4573 53.2796 73.1866 49.3911C72.1921 47.6879 71.5376 45.8175 71.2487 43.8891C73.3679 45.3625 76.0935 47.798 78.1061 51.4958C81.3521 57.4603 81.8321 64.8915 79.5323 73.5829Z" fill="white"/>
<path d="M62.3024 70.6727C61.8174 70.3455 61.1615 70.4774 60.8376 70.9671C59.3891 73.1567 57.2257 74.7802 54.7459 75.5385C54.1876 75.7092 53.8722 76.3046 54.0412 76.8682C54.1793 77.3289 54.6424 77.8216 55.358 77.5799C58.2779 76.5935 60.8746 74.751 62.594 72.1517C62.9181 71.662 62.7875 70.9998 62.3024 70.6727Z" fill="white"/>
</svg>
