<svg xmlns="http://www.w3.org/2000/svg" width="46" height="16" viewBox="0 0 46 16"><g><g><g><g><path fill="#fff" d="M5.782 15.288l-3.833-4.654h1.139c.698 0 1.273-.086 1.702-.27.318-.146.6-.379.832-.685.233-.306.356-.65.356-1.016 0-.331-.098-.65-.294-.943-.196-.294-.478-.54-.858-.735a2.826 2.826 0 0 0-1.273-.282H.969V15.3H.332V6.054h3.22c.442 0 .846.074 1.225.208.38.135.71.33.992.588.27.245.49.527.637.833.147.318.22.637.22.967 0 .527-.159.992-.465 1.396a2.81 2.81 0 0 1-1.102.894c-.294.135-.575.22-.857.245a6.907 6.907 0 0 1-.894.05l3.343 4.053h-.87z"/></g><g><path fill="#fff" d="M9.113 15.288V6.054h5.976v.65h-5.34v3.636h4.164v.65H9.75v3.624h5.339v.674z"/></g><g><path fill="#fff" d="M18.163 6.69h2.02c1.14 0 2.07.393 2.805 1.176.33.368.588.784.759 1.262.171.49.257.992.257 1.518 0 .54-.086 1.054-.257 1.531a3.658 3.658 0 0 1-.76 1.262c-.722.808-1.652 1.212-2.804 1.212h-2.02zm2.02 8.598c.65 0 1.25-.123 1.813-.355a4.043 4.043 0 0 0 1.445-1.041 4.7 4.7 0 0 0 .894-1.482 4.934 4.934 0 0 0 .318-1.751c0-.625-.11-1.2-.318-1.752a4.589 4.589 0 0 0-.894-1.457 4.21 4.21 0 0 0-1.445-1.029 4.44 4.44 0 0 0-1.813-.367h-2.657v9.234h2.657z"/></g><g><path fill="#fff" d="M27.433 6.715h2.658c.428 0 .82.086 1.175.257.355.172.65.405.858.71.208.307.318.638.318.993 0 .343-.11.673-.318.967a2.23 2.23 0 0 1-.858.71 2.668 2.668 0 0 1-1.175.258h-2.646zm.012 8.573v-4.005h2.646c.538 0 1.028-.122 1.494-.355.453-.233.82-.551 1.09-.955.269-.404.404-.833.404-1.298a2.27 2.27 0 0 0-.404-1.31 2.76 2.76 0 0 0-1.09-.956 3.238 3.238 0 0 0-1.494-.355h-3.295l.013 9.234z"/></g><g><path fill="#fff" d="M35.418 15.288V6.054h.637v9.234z"/></g><g><path fill="#fff" d="M45.668 6.054l-3.294 4.617 3.294 4.617h-.784l-2.902-4.078-2.903 4.078h-.783l3.306-4.617-3.294-4.617h.784l2.902 4.078 2.902-4.078z"/></g></g><g><path fill="#d40000" d="M41.982-.29l-2.988 4.385 2.988 4.372 3-4.372z"/></g></g></g></svg>