<svg width="68" height="67" viewBox="0 0 68 67" fill="none" xmlns="http://www.w3.org/2000/svg">
<path d="M6.64062 0H1.32812C0.594602 0 0 0.585857 0 1.30859V6.54297C0 7.26571 0.594602 7.85156 1.32812 7.85156H6.64062C7.37415 7.85156 7.96875 7.26571 7.96875 6.54297V1.30859C7.96875 0.585857 7.37415 0 6.64062 0ZM5.3125 5.23438H2.65625V2.61719H5.3125V5.23438Z" fill="white"/>
<path d="M6.64062 59.1484H1.32812C0.594602 59.1484 0 59.7343 0 60.457V65.6914C0 66.4141 0.594602 67 1.32812 67H6.64062C7.37415 67 7.96875 66.4141 7.96875 65.6914V60.457C7.96875 59.7343 7.37415 59.1484 6.64062 59.1484ZM5.3125 64.3828H2.65625V61.7656H5.3125V64.3828Z" fill="white"/>
<path d="M66.6719 0H61.3594C60.6259 0 60.0312 0.585857 60.0312 1.30859V6.54297C60.0312 7.26571 60.6259 7.85156 61.3594 7.85156H66.6719C67.4054 7.85156 68 7.26571 68 6.54297V1.30859C68 0.585857 67.4054 0 66.6719 0ZM65.3438 5.23438H62.6875V2.61719H65.3438V5.23438Z" fill="white"/>
<path d="M66.6719 59.1484H61.3594C60.6259 59.1484 60.0312 59.7343 60.0312 60.457V65.6914C60.0312 66.4141 60.6259 67 61.3594 67H66.6719C67.4054 67 68 66.4141 68 65.6914V60.457C68 59.7343 67.4054 59.1484 66.6719 59.1484ZM65.3438 64.3828H62.6875V61.7656H65.3438V64.3828Z" fill="white"/>
<path d="M31.3438 10.8613H12.3516C11.618 10.8613 11.0234 11.4472 11.0234 12.1699V30.8828C11.0234 31.6055 11.618 32.1914 12.3516 32.1914H31.3438C32.0773 32.1914 32.6719 31.6055 32.6719 30.8828V12.1699C32.6719 11.4472 32.0773 10.8613 31.3438 10.8613ZM30.0156 29.5742H13.6797V13.4785H30.0156V29.5742Z" fill="white"/>
<path d="M59.8518 30.2259L48.8284 11.513C48.5906 11.1096 48.153 10.8613 47.6797 10.8613C47.2063 10.8613 46.7687 11.1096 46.531 11.513L35.5076 30.2259C35.2692 30.6308 35.2682 31.1303 35.5053 31.5358C35.7424 31.9413 36.1812 32.1914 36.6563 32.1914H58.7031C59.1782 32.1914 59.617 31.9415 59.8541 31.5358C60.0911 31.1301 60.0902 30.6308 59.8518 30.2259ZM38.9628 29.5742L47.6797 14.7768L56.3966 29.5742H38.9628Z" fill="white"/>
<path d="M21.6484 35.2012C15.7898 35.2012 11.0234 39.8975 11.0234 45.6699C11.0234 51.4424 15.7898 56.1387 21.6484 56.1387C27.5071 56.1387 32.2734 51.4424 32.2734 45.6699C32.2734 39.8975 27.5071 35.2012 21.6484 35.2012ZM21.6484 53.5215C17.2545 53.5215 13.6797 49.9993 13.6797 45.6699C13.6797 41.3406 17.2545 37.8184 21.6484 37.8184C26.0424 37.8184 29.6172 41.3406 29.6172 45.6699C29.6172 49.9993 26.0424 53.5215 21.6484 53.5215Z" fill="white"/>
<path d="M56.5875 37.8089C56.0689 37.2979 55.2279 37.2979 54.7092 37.8089L38.3732 53.9046C37.8546 54.4156 37.8546 55.2442 38.3732 55.7554C38.6326 56.0109 38.9725 56.1387 39.3123 56.1387C39.6522 56.1387 39.9923 56.0109 40.2516 55.7554L56.5875 39.6597C57.1062 39.1487 57.1062 38.3201 56.5875 37.8089Z" fill="white"/>
<path d="M3.98438 10.8613C3.25085 10.8613 2.65625 11.4472 2.65625 12.1699V14.7871C2.65625 15.5098 3.25085 16.0957 3.98438 16.0957C4.7179 16.0957 5.3125 15.5098 5.3125 14.7871V12.1699C5.3125 11.4472 4.7179 10.8613 3.98438 10.8613Z" fill="white"/>
<path d="M3.98438 19.1055C3.25085 19.1055 2.65625 19.6913 2.65625 20.4141V23.0312C2.65625 23.754 3.25085 24.3398 3.98438 24.3398C4.7179 24.3398 5.3125 23.754 5.3125 23.0312V20.4141C5.3125 19.6913 4.7179 19.1055 3.98438 19.1055Z" fill="white"/>
<path d="M3.98438 26.957C3.25085 26.957 2.65625 27.5429 2.65625 28.2656V30.8828C2.65625 31.6055 3.25085 32.1914 3.98438 32.1914C4.7179 32.1914 5.3125 31.6055 5.3125 30.8828V28.2656C5.3125 27.5429 4.7179 26.957 3.98438 26.957Z" fill="white"/>
<path d="M3.98438 34.8086C3.25085 34.8086 2.65625 35.3945 2.65625 36.1172V38.7344C2.65625 39.4571 3.25085 40.043 3.98438 40.043C4.7179 40.043 5.3125 39.4571 5.3125 38.7344V36.1172C5.3125 35.3945 4.7179 34.8086 3.98438 34.8086Z" fill="white"/>
<path d="M3.98438 42.6602C3.25085 42.6602 2.65625 43.246 2.65625 43.9688V46.9785C2.65625 47.7013 3.25085 48.2871 3.98438 48.2871C4.7179 48.2871 5.3125 47.7013 5.3125 46.9785V43.9688C5.3125 43.246 4.7179 42.6602 3.98438 42.6602Z" fill="white"/>
<path d="M3.98438 50.9043C3.25085 50.9043 2.65625 51.4902 2.65625 52.2129V54.8301C2.65625 55.5528 3.25085 56.1387 3.98438 56.1387C4.7179 56.1387 5.3125 55.5528 5.3125 54.8301V52.2129C5.3125 51.4902 4.7179 50.9043 3.98438 50.9043Z" fill="white"/>
<path d="M64.0156 10.8613C63.2821 10.8613 62.6875 11.4472 62.6875 12.1699V14.7871C62.6875 15.5098 63.2821 16.0957 64.0156 16.0957C64.7491 16.0957 65.3438 15.5098 65.3438 14.7871V12.1699C65.3438 11.4472 64.7491 10.8613 64.0156 10.8613Z" fill="white"/>
<path d="M64.0156 19.1055C63.2821 19.1055 62.6875 19.6913 62.6875 20.4141V23.0312C62.6875 23.754 63.2821 24.3398 64.0156 24.3398C64.7491 24.3398 65.3438 23.754 65.3438 23.0312V20.4141C65.3438 19.6913 64.7491 19.1055 64.0156 19.1055Z" fill="white"/>
<path d="M64.0156 26.957C63.2821 26.957 62.6875 27.5429 62.6875 28.2656V30.8828C62.6875 31.6055 63.2821 32.1914 64.0156 32.1914C64.7491 32.1914 65.3438 31.6055 65.3438 30.8828V28.2656C65.3438 27.5429 64.7491 26.957 64.0156 26.957Z" fill="white"/>
<path d="M64.0156 34.8086C63.2821 34.8086 62.6875 35.3945 62.6875 36.1172V38.7344C62.6875 39.4571 63.2821 40.043 64.0156 40.043C64.7491 40.043 65.3438 39.4571 65.3438 38.7344V36.1172C65.3438 35.3945 64.7491 34.8086 64.0156 34.8086Z" fill="white"/>
<path d="M64.0156 42.6602C63.2821 42.6602 62.6875 43.246 62.6875 43.9688V46.9785C62.6875 47.7013 63.2821 48.2871 64.0156 48.2871C64.7491 48.2871 65.3438 47.7013 65.3438 46.9785V43.9688C65.3438 43.246 64.7491 42.6602 64.0156 42.6602Z" fill="white"/>
<path d="M64.0156 50.9043C63.2821 50.9043 62.6875 51.4902 62.6875 52.2129V54.8301C62.6875 55.5528 63.2821 56.1387 64.0156 56.1387C64.7491 56.1387 65.3438 55.5528 65.3438 54.8301V52.2129C65.3438 51.4902 64.7491 50.9043 64.0156 50.9043Z" fill="white"/>
<path d="M15.4062 61.7656H12.3516C11.618 61.7656 11.0234 62.3515 11.0234 63.0742C11.0234 63.797 11.618 64.3828 12.3516 64.3828H15.4062C16.1398 64.3828 16.7344 63.797 16.7344 63.0742C16.7344 62.3515 16.1398 61.7656 15.4062 61.7656Z" fill="white"/>
<path d="M23.375 61.7656H20.7188C19.9852 61.7656 19.3906 62.3515 19.3906 63.0742C19.3906 63.797 19.9852 64.3828 20.7188 64.3828H23.375C24.1085 64.3828 24.7031 63.797 24.7031 63.0742C24.7031 62.3515 24.1085 61.7656 23.375 61.7656Z" fill="white"/>
<path d="M31.3438 61.7656H28.6875C27.954 61.7656 27.3594 62.3515 27.3594 63.0742C27.3594 63.797 27.954 64.3828 28.6875 64.3828H31.3438C32.0773 64.3828 32.6719 63.797 32.6719 63.0742C32.6719 62.3515 32.0773 61.7656 31.3438 61.7656Z" fill="white"/>
<path d="M39.3125 61.7656H36.6562C35.9227 61.7656 35.3281 62.3515 35.3281 63.0742C35.3281 63.797 35.9227 64.3828 36.6562 64.3828H39.3125C40.046 64.3828 40.6406 63.797 40.6406 63.0742C40.6406 62.3515 40.046 61.7656 39.3125 61.7656Z" fill="white"/>
<path d="M47.6797 61.7656H45.0234C44.2899 61.7656 43.6953 62.3515 43.6953 63.0742C43.6953 63.797 44.2899 64.3828 45.0234 64.3828H47.6797C48.4132 64.3828 49.0078 63.797 49.0078 63.0742C49.0078 62.3515 48.4132 61.7656 47.6797 61.7656Z" fill="white"/>
<path d="M55.6484 61.7656H52.9922C52.2587 61.7656 51.6641 62.3515 51.6641 63.0742C51.6641 63.797 52.2587 64.3828 52.9922 64.3828H55.6484C56.382 64.3828 56.9766 63.797 56.9766 63.0742C56.9766 62.3515 56.382 61.7656 55.6484 61.7656Z" fill="white"/>
<path d="M15.4062 2.61719H12.3516C11.618 2.61719 11.0234 3.20304 11.0234 3.92578C11.0234 4.64852 11.618 5.23438 12.3516 5.23438H15.4062C16.1398 5.23438 16.7344 4.64852 16.7344 3.92578C16.7344 3.20304 16.1398 2.61719 15.4062 2.61719Z" fill="white"/>
<path d="M23.375 2.61719H20.7188C19.9852 2.61719 19.3906 3.20304 19.3906 3.92578C19.3906 4.64852 19.9852 5.23438 20.7188 5.23438H23.375C24.1085 5.23438 24.7031 4.64852 24.7031 3.92578C24.7031 3.20304 24.1085 2.61719 23.375 2.61719Z" fill="white"/>
<path d="M31.3438 2.61719H28.6875C27.954 2.61719 27.3594 3.20304 27.3594 3.92578C27.3594 4.64852 27.954 5.23438 28.6875 5.23438H31.3438C32.0773 5.23438 32.6719 4.64852 32.6719 3.92578C32.6719 3.20304 32.0773 2.61719 31.3438 2.61719Z" fill="white"/>
<path d="M39.3125 2.61719H36.6562C35.9227 2.61719 35.3281 3.20304 35.3281 3.92578C35.3281 4.64852 35.9227 5.23438 36.6562 5.23438H39.3125C40.046 5.23438 40.6406 4.64852 40.6406 3.92578C40.6406 3.20304 40.046 2.61719 39.3125 2.61719Z" fill="white"/>
<path d="M47.6797 2.61719H45.0234C44.2899 2.61719 43.6953 3.20304 43.6953 3.92578C43.6953 4.64852 44.2899 5.23438 45.0234 5.23438H47.6797C48.4132 5.23438 49.0078 4.64852 49.0078 3.92578C49.0078 3.20304 48.4132 2.61719 47.6797 2.61719Z" fill="white"/>
<path d="M55.6484 2.61719H52.9922C52.2587 2.61719 51.6641 3.20304 51.6641 3.92578C51.6641 4.64852 52.2587 5.23438 52.9922 5.23438H55.6484C56.382 5.23438 56.9766 4.64852 56.9766 3.92578C56.9766 3.20304 56.382 2.61719 55.6484 2.61719Z" fill="white"/>
</svg>
