<svg width="65" height="68" viewBox="0 0 65 68" fill="none" xmlns="http://www.w3.org/2000/svg">
<path d="M61.1914 14.3438H47.4788V10.3594C47.4788 5.23308 43.4922 1.0625 38.5921 1.0625H26.4111C21.5109 1.0625 17.5244 5.23308 17.5244 10.3594V14.3438H3.80859C1.70854 14.3438 0 16.1311 0 18.3281V32.4062C0 34.412 1.01766 36.1733 2.54071 37.1564V62.9531C2.54071 65.1501 4.24925 66.9375 6.34931 66.9375H27.931C28.632 66.9375 29.2005 66.3429 29.2005 65.6094C29.2005 64.8759 28.632 64.2812 27.931 64.2812H6.34931C5.64929 64.2812 5.07978 63.6855 5.07978 62.9531V37.9777C5.16344 37.9817 5.24735 37.9844 5.33203 37.9844H13.4188C13.6104 40.9126 15.9472 43.2342 18.7939 43.2342C21.6406 43.2342 23.9775 40.9126 24.169 37.9844H40.8342C41.0258 40.9126 43.3626 43.2342 46.2093 43.2342C49.056 43.2342 51.3929 40.9126 51.5844 37.9844H59.668C59.7537 37.9844 59.8387 37.9819 59.9235 37.9776V62.9531C59.9235 63.6855 59.354 64.2812 58.654 64.2812H38.088C37.3869 64.2812 36.8184 64.8759 36.8184 65.6094C36.8184 66.3429 37.3869 66.9375 38.088 66.9375H58.654C60.7541 66.9375 62.4626 65.1501 62.4626 62.9531V37.1543C63.9839 36.1708 65 34.4107 65 32.4062V18.3281C65 16.1311 63.2915 14.3438 61.1914 14.3438ZM20.0634 10.3594C20.0634 6.69773 22.911 3.71875 26.4111 3.71875H38.5921C42.0922 3.71875 44.9398 6.69773 44.9398 10.3594V14.3438H42.4007V10.3594C42.4007 8.16239 40.6922 6.375 38.5921 6.375H26.4111C24.311 6.375 22.6025 8.16239 22.6025 10.3594V14.3438H20.0634V10.3594ZM39.8616 10.3594V14.3438H25.1415V10.3594C25.1415 9.62705 25.7111 9.03125 26.4111 9.03125H38.5921C39.2921 9.03125 39.8616 9.62705 39.8616 10.3594ZM21.6441 36.6537C21.6441 36.6545 21.644 36.6555 21.644 36.6562C21.644 36.657 21.6441 36.658 21.6441 36.6588V37.596C21.6441 39.2402 20.3656 40.5779 18.7939 40.5779C17.2222 40.5779 15.9437 39.2402 15.9437 37.5962V34.2656H21.6441V36.6537ZM49.0595 37.5962C49.0595 39.2402 47.781 40.5779 46.2093 40.5779C44.6376 40.5779 43.3591 39.2402 43.3591 37.5962V34.2656H49.0595V37.5962ZM62.4609 32.4062C62.4609 34.0174 61.208 35.3281 59.668 35.3281H51.5986V32.9375C51.5986 32.204 51.0301 31.6094 50.329 31.6094H42.0895C41.3885 31.6094 40.82 32.204 40.82 32.9375V35.3281H24.1832V32.9375C24.1832 32.204 23.6147 31.6094 22.9136 31.6094H14.6741C13.9731 31.6094 13.4046 32.204 13.4046 32.9375V35.3281H5.33203C3.79196 35.3281 2.53906 34.0174 2.53906 32.4062V18.3281C2.53906 17.5958 3.10857 17 3.80859 17H18.7939H23.872H41.1312H46.2093H61.1914C61.8914 17 62.4609 17.5958 62.4609 18.3281V32.4062Z" fill="white"/>
<path d="M33.9742 64.6704C33.7368 64.4234 33.4107 64.2812 33.0754 64.2812C32.7415 64.2812 32.4152 64.4234 32.178 64.6704C31.9418 64.9174 31.8071 65.2601 31.8071 65.6094C31.8071 65.9587 31.9418 66.3013 32.178 66.5484C32.4152 66.7954 32.7428 66.9375 33.0754 66.9375C33.4093 66.9375 33.7368 66.7954 33.9742 66.5484C34.2104 66.3013 34.3449 65.9587 34.3449 65.6094C34.3449 65.2601 34.2104 64.9174 33.9742 64.6704Z" fill="white"/>
<path d="M41.7778 21.1743C41.5418 20.9273 41.2143 20.7852 40.8804 20.7852C40.5465 20.7852 40.2189 20.9273 39.9828 21.1743C39.7466 21.4213 39.6108 21.764 39.6108 22.1133C39.6108 22.4626 39.7467 22.8052 39.9828 23.0523C40.2189 23.2993 40.5465 23.4414 40.8804 23.4414C41.2143 23.4414 41.5418 23.2993 41.7778 23.0523C42.0141 22.8052 42.1499 22.4626 42.1499 22.1133C42.1499 21.764 42.0139 21.4213 41.7778 21.1743Z" fill="white"/>
<path d="M63.3473 20.7852H46.2207C45.5197 20.7852 44.9512 21.3798 44.9512 22.1133C44.9512 22.8468 45.5197 23.4414 46.2207 23.4414H63.3473C64.0485 23.4414 64.6168 22.8468 64.6168 22.1133C64.6168 21.3798 64.0483 20.7852 63.3473 20.7852Z" fill="white"/>
</svg>
