<svg width="73" height="73" viewBox="0 0 73 73" fill="none" xmlns="http://www.w3.org/2000/svg">
<path fill-rule="evenodd" clip-rule="evenodd" d="M71.5742 14.8871H65.1576C64.3706 14.8871 63.7318 15.5151 63.7318 16.29C63.7318 17.0648 64.3706 17.6928 65.1576 17.6928H70.1484V55.3184H19.2485C18.461 55.3184 17.8228 55.9469 17.8228 56.7212C17.8228 57.4961 18.461 58.1241 19.2485 58.1241H71.5742C72.3617 58.1241 72.9999 57.4961 72.9999 56.7212V16.29C72.9999 15.5151 72.3617 14.8871 71.5742 14.8871Z" fill="white"/>
<path fill-rule="evenodd" clip-rule="evenodd" d="M7.84235 55.3184H2.85156V17.6928H53.7514C54.5389 17.6928 55.1772 17.0648 55.1772 16.29C55.1772 15.5151 54.5389 14.8871 53.7514 14.8871H1.42578C0.63826 14.8871 0 15.5151 0 16.29V56.7212C0 57.4961 0.63826 58.1241 1.42578 58.1241H7.84235C8.62932 58.1241 9.26814 57.4961 9.26814 56.7212C9.26814 55.9469 8.62932 55.3184 7.84235 55.3184Z" fill="white"/>
<path fill-rule="evenodd" clip-rule="evenodd" d="M20.8711 36.5056C20.8711 44.9848 27.8825 51.8835 36.5001 51.8835C45.1177 51.8835 52.1291 44.9848 52.1291 36.5056C52.1291 28.0264 45.1177 21.1277 36.5001 21.1277C27.8825 21.1277 20.8711 28.0264 20.8711 36.5056ZM49.2775 36.5056C49.2775 43.4378 43.5455 49.0778 36.5001 49.0778C29.4547 49.0778 23.7227 43.4378 23.7227 36.5056C23.7227 29.5734 29.4547 23.9334 36.5001 23.9334C43.5455 23.9334 49.2775 29.5734 49.2775 36.5056Z" fill="white"/>
<path fill-rule="evenodd" clip-rule="evenodd" d="M31.5046 28.4544C31.063 28.7048 30.7917 29.1679 30.7917 29.6688V43.3424C30.7917 43.8433 31.063 44.3069 31.5046 44.5573C31.7252 44.6828 31.9708 44.7453 32.2175 44.7453C32.4637 44.7453 32.7093 44.6828 32.9304 44.5573L44.9649 37.7205C45.406 37.4701 45.6778 37.007 45.6778 36.5056C45.6778 36.0047 45.406 35.5417 44.9649 35.2907L32.9304 28.4544C32.4888 28.2034 31.9457 28.2034 31.5046 28.4544ZM33.6433 32.0986L41.4005 36.5056L33.6433 40.9126V32.0986Z" fill="white"/>
<path fill-rule="evenodd" clip-rule="evenodd" d="M11.8936 39.7004L8.64658 36.5056L11.8936 33.3108C12.45 32.7633 12.45 31.875 11.8936 31.327C11.3366 30.779 10.4338 30.779 9.87688 31.327L5.62181 35.5137C5.06487 36.0612 5.06487 36.9495 5.62181 37.4975L9.87688 41.6842C10.1553 41.9582 10.5201 42.0952 10.8849 42.0952C11.2503 42.0952 11.6151 41.9582 11.893 41.6842C12.45 41.1367 12.45 40.2484 11.8936 39.7004Z" fill="white"/>
<path fill-rule="evenodd" clip-rule="evenodd" d="M61.1064 33.3108L64.3534 36.5056L61.1064 39.7004C60.5495 40.2479 60.5495 41.1362 61.1064 41.6842C61.3849 41.9582 61.7497 42.0952 62.1145 42.0952C62.4793 42.0952 62.8441 41.9582 63.1226 41.6842L67.3776 37.4975C67.9346 36.9495 67.9346 36.0612 67.3776 35.5132L63.1226 31.3265C62.5656 30.779 61.6634 30.779 61.1064 31.3265C60.5495 31.875 60.5495 32.7633 61.1064 33.3108Z" fill="white"/>
<path fill-rule="evenodd" clip-rule="evenodd" d="M13.5454 55.3184C12.7596 55.3184 12.1196 55.9486 12.1196 56.7212C12.1196 57.4939 12.7596 58.1241 13.5454 58.1241C14.3307 58.1241 14.9712 57.4939 14.9712 56.7212C14.9712 55.9486 14.3307 55.3184 13.5454 55.3184Z" fill="white"/>
<path fill-rule="evenodd" clip-rule="evenodd" d="M59.4546 17.6928C60.2399 17.6928 60.8804 17.0626 60.8804 16.29C60.8804 15.5173 60.2399 14.8871 59.4546 14.8871C58.6693 14.8871 58.0288 15.5173 58.0288 16.29C58.0288 17.0626 58.6693 17.6928 59.4546 17.6928Z" fill="white"/>
</svg>
