<svg width="77" height="77" viewBox="0 0 77 77" fill="none" xmlns="http://www.w3.org/2000/svg">
<path fill-rule="evenodd" clip-rule="evenodd" d="M75.4961 10.0762H13.6914C12.8607 10.0762 12.1875 10.7494 12.1875 11.5801V16.1699H7.59766C6.76699 16.1699 6.09376 16.8432 6.09376 17.6738V22.2637H1.50391C0.673233 22.2637 0 22.9375 0 23.7676V65.4422C0 66.2729 0.673233 66.9462 1.50391 66.9462H26.3906C27.2213 66.9462 27.8945 66.2729 27.8945 65.4422C27.8945 64.6122 27.2213 63.9383 26.3906 63.9383H3.00781V25.2715H61.8047V63.9383H38.4219C37.5912 63.9383 36.918 64.6116 36.918 65.4422C36.918 66.2729 37.5912 66.9462 38.4219 66.9462H63.3086C64.1387 66.9462 64.8125 66.2729 64.8125 65.4422V60.8524H69.4023C70.233 60.8524 70.9062 60.1786 70.9062 59.3485V54.7586H75.4961C76.3268 54.7586 77 54.0848 77 53.2547V11.5801C77 10.7494 76.3268 10.0762 75.4961 10.0762ZM67.8984 57.8446H64.8125V23.7676C64.8125 22.9369 64.1387 22.2637 63.3086 22.2637H9.10157V19.1777H67.8984V57.8446ZM73.9922 51.7508H70.9062V17.6738C70.9062 16.8432 70.233 16.1699 69.4023 16.1699H15.1953V13.084H73.9922V51.7508Z" fill="white"/>
<path fill-rule="evenodd" clip-rule="evenodd" d="M48.104 44.6049C48.104 35.9486 41.062 28.9073 32.4063 28.9073C23.7507 28.9073 16.7087 35.9486 16.7087 44.6049C16.7087 53.2606 23.7507 60.3025 32.4063 60.3025C41.062 60.3025 48.104 53.2606 48.104 44.6049ZM19.7166 44.6049C19.7166 37.6076 25.4091 31.9151 32.4063 31.9151C39.4036 31.9151 45.0961 37.6076 45.0961 44.6049C45.0961 51.6022 39.4036 57.2947 32.4063 57.2947C25.4091 57.2947 19.7166 51.6022 19.7166 44.6049Z" fill="white"/>
<path fill-rule="evenodd" clip-rule="evenodd" d="M41.7833 44.6049C41.7833 44.068 41.4967 43.571 41.0314 43.3025L28.6089 36.1307C28.1436 35.8617 27.5703 35.8617 27.105 36.1307C26.6397 36.3992 26.353 36.8956 26.353 37.4332V51.7772C26.353 52.3142 26.6397 52.8106 27.105 53.0797C27.3376 53.2142 27.5973 53.2812 27.8569 53.2812C28.1172 53.2812 28.3763 53.2142 28.6089 53.0797L41.0314 45.9073C41.4967 45.6388 41.7833 45.1418 41.7833 44.6049ZM29.3608 49.1724V40.0374L37.2716 44.6049L29.3608 49.1724Z" fill="white"/>
<path fill-rule="evenodd" clip-rule="evenodd" d="M32.4063 63.9384C31.5779 63.9384 30.9023 64.6139 30.9023 65.4423C30.9023 66.2706 31.5779 66.9462 32.4063 66.9462C33.2346 66.9462 33.9102 66.2706 33.9102 65.4423C33.9102 64.6139 33.2346 63.9384 32.4063 63.9384Z" fill="white"/>
</svg>
