<svg width="77" height="77" viewBox="0 0 77 77" fill="none" xmlns="http://www.w3.org/2000/svg">
<path d="M11.5495 60.267H6.41615C5.70775 60.267 5.13281 60.8388 5.13281 61.5435V66.6494C5.13281 67.354 5.70775 67.9259 6.41615 67.9259H11.5495C12.2579 67.9259 12.8328 67.354 12.8328 66.6494V61.5435C12.8328 60.8388 12.2579 60.267 11.5495 60.267ZM7.69948 62.8199H10.2661V65.3729H7.69948V62.8199Z" fill="#DBDBDB"/>
<path d="M21.8171 60.267H16.6837C15.9753 60.267 15.4004 60.8388 15.4004 61.5435V66.6494C15.4004 67.354 15.9753 67.9259 16.6837 67.9259H21.8171C22.5255 67.9259 23.1004 67.354 23.1004 66.6494V61.5435C23.1004 60.8388 22.5255 60.267 21.8171 60.267ZM17.9671 62.8199H20.5337V65.3729H17.9671V62.8199Z" fill="#DBDBDB"/>
<path d="M32.0837 60.267H26.9503C26.2419 60.267 25.667 60.8388 25.667 61.5435V66.6494C25.667 67.354 26.2419 67.9259 26.9503 67.9259H32.0837C32.7921 67.9259 33.367 67.354 33.367 66.6494V61.5435C33.367 60.8388 32.7921 60.267 32.0837 60.267ZM28.2337 62.8199H30.8003V65.3729H28.2337V62.8199Z" fill="#DBDBDB"/>
<path d="M75.7167 55.161H1.28333C0.574933 55.161 0 55.7329 0 56.4375V67.2877C0 70.4546 2.59105 73.0319 5.775 73.0319H71.225C74.409 73.0319 77 70.4546 77 67.2877V56.4375C77 55.7329 76.4251 55.161 75.7167 55.161ZM2.56667 57.714H74.4333V67.2877C74.4333 69.0467 72.9934 70.4789 71.225 70.4789H5.775C4.00657 70.4789 2.56667 69.0467 2.56667 67.2877V57.714Z" fill="#DBDBDB"/>
<path d="M38.4993 4.10144C26.4693 4.10144 16.6826 13.8359 16.6826 25.8018C16.6826 37.7676 26.4693 47.5021 38.4993 47.5021C50.5293 47.5021 60.316 37.7676 60.316 25.8018C60.316 13.8359 50.5293 4.10144 38.4993 4.10144ZM38.4993 44.9491C27.8848 44.9491 19.2493 36.3596 19.2493 25.8018C19.2493 15.2439 27.8848 6.65442 38.4993 6.65442C49.1137 6.65442 57.7493 15.2439 57.7493 25.8018C57.7493 36.3596 49.1137 44.9491 38.4993 44.9491Z" fill="#DBDBDB"/>
<path d="M38.5002 4.10144C32.0232 4.10144 26.9502 13.633 26.9502 25.8018C26.9502 37.9705 32.0232 47.5021 38.5002 47.5021C44.9772 47.5021 50.0502 37.9705 50.0502 25.8018C50.0502 13.633 44.9772 4.10144 38.5002 4.10144ZM38.5002 44.9491C33.6312 44.9491 29.5169 36.1809 29.5169 25.8018C29.5169 15.4226 33.6312 6.65442 38.5002 6.65442C43.3692 6.65442 47.4835 15.4226 47.4835 25.8018C47.4835 36.1809 43.3692 44.9491 38.5002 44.9491Z" fill="#DBDBDB"/>
<path d="M59.0326 24.5253H17.966C17.2576 24.5253 16.6826 25.0971 16.6826 25.8018C16.6826 26.5064 17.2576 27.0782 17.966 27.0782H59.0326C59.741 27.0782 60.316 26.5064 60.316 25.8018C60.316 25.0971 59.741 24.5253 59.0326 24.5253Z" fill="#DBDBDB"/>
<path d="M38.5001 4.10144C37.7917 4.10144 37.2168 4.67331 37.2168 5.37793V46.2256C37.2168 46.9302 37.7917 47.5021 38.5001 47.5021C39.2085 47.5021 39.7835 46.9302 39.7835 46.2256V5.37793C39.7835 4.67331 39.2085 4.10144 38.5001 4.10144Z" fill="#DBDBDB"/>
<path d="M38.5005 32.1842C32.37 32.1842 26.5013 34.2343 21.9737 37.9565C21.7094 38.1735 21.5438 38.4862 21.513 38.8258C21.4822 39.1653 21.5887 39.5023 21.8095 39.7627C25.9713 44.681 32.0556 47.5021 38.5005 47.5021C44.9467 47.5021 51.0297 44.681 55.1915 39.764C55.4123 39.5036 55.5188 39.1666 55.488 38.8271C55.4572 38.4875 55.2916 38.1748 55.0273 37.9578C50.4997 34.2343 44.631 32.1842 38.5005 32.1842ZM24.6687 39.1066C28.5752 36.2805 33.4352 34.7372 38.5005 34.7372C43.5658 34.7372 48.4258 36.2805 52.3323 39.1066C48.7107 42.8352 43.7404 44.9491 38.5005 44.9491C33.2607 44.9491 28.2903 42.8352 24.6687 39.1066Z" fill="#DBDBDB"/>
<path d="M38.5005 4.10144C32.0556 4.10144 25.9713 6.92248 21.8095 11.8408C21.5887 12.1012 21.4822 12.4382 21.513 12.7777C21.5438 13.1173 21.7094 13.43 21.9737 13.647C26.5013 17.3693 32.37 19.4193 38.5005 19.4193C44.6297 19.4193 50.4997 17.3693 55.0273 13.647C55.2916 13.43 55.4572 13.1173 55.488 12.7777C55.5188 12.4382 55.4123 12.1012 55.1915 11.8408C51.0297 6.92248 44.9454 4.10144 38.5005 4.10144ZM24.6687 12.4969C28.2916 8.76828 33.2607 6.65442 38.5005 6.65442C43.7404 6.65442 48.7094 8.76828 52.3323 12.4969C48.4245 15.3231 43.5658 16.8663 38.5005 16.8663C33.4352 16.8663 28.5752 15.3231 24.6687 12.4969Z" fill="#DBDBDB"/>
<path d="M71.225 10.4839H53.3854C52.872 10.4839 52.4088 10.7877 52.206 11.2562C52.0032 11.7246 52.1008 12.2684 52.4537 12.6386C55.8686 16.2204 57.75 20.8949 57.75 25.8018C57.75 36.3596 49.1144 44.9491 38.5 44.9491C27.8855 44.9491 19.25 36.3596 19.25 25.8018C19.25 20.8949 21.1314 16.2204 24.5463 12.6386C24.8992 12.2684 24.9968 11.7246 24.794 11.2562C24.5912 10.7877 24.1279 10.4839 23.6146 10.4839H5.775C2.59105 10.4839 0 13.0611 0 16.2281V67.2877C0 70.4546 2.59105 73.0319 5.775 73.0319H71.225C74.409 73.0319 77 70.4546 77 67.2877V16.2281C77 13.0611 74.409 10.4839 71.225 10.4839ZM56.124 13.0369H71.225C72.9947 13.0369 74.4333 14.4691 74.4333 16.2281V67.2877C74.4333 69.0467 72.9934 70.4789 71.225 70.4789H5.775C4.00657 70.4789 2.56667 69.0467 2.56667 67.2877V16.2281C2.56667 14.4691 4.00657 13.0369 5.775 13.0369H20.8747C18.1553 16.7349 16.6833 21.177 16.6833 25.8018C16.6833 37.7676 26.47 47.5021 38.5 47.5021C50.53 47.5021 60.3167 37.7676 60.3167 25.8018C60.3167 21.177 58.8447 16.7349 56.124 13.0369Z" fill="#DBDBDB"/>
</svg>
