<svg width="66" height="66" viewBox="0 0 66 66" fill="none" xmlns="http://www.w3.org/2000/svg">
<path d="M28.3685 54.433L35.6111 38.4316H38.8112V54.433H43.3583V11.567H35.306C30.1806 11.567 24.0739 16.9572 24.0739 25.7148C24.0739 34.4741 31.737 38.0106 31.737 38.0106L22.6418 54.433H28.3685ZM31.1768 32.5445C30.0578 31.1384 29.0834 28.799 29.0834 24.9159C29.0834 16.4096 33.9744 15.3109 34.649 15.2003C34.6974 15.1923 34.7447 15.1897 34.7931 15.1897H38.6842V34.642H35.6569C33.9261 34.642 32.2548 33.8984 31.1768 32.5445Z" fill="white"/>
<path d="M0 0V66H66V0H0ZM61.9175 61.9175H4.08247V4.08247H61.9175V61.9175Z" fill="white"/>
</svg>
